<svg height="512" viewBox="0 0 16.9 16.9" width="512" xmlns="http://www.w3.org/2000/svg" xmlns:cc="http://creativecommons.org/ns#" xmlns:dc="http://purl.org/dc/elements/1.1/" xmlns:rdf="http://www.w3.org/1999/02/22-rdf-syntax-ns#"><g><path d="m7.14 7.41s-.585-.0032-1.18.293c-.592.296-1.2.941-1.2 2.09v4.23a.265.265 0 0 0 .264.264h3.71a.265.265 0 0 0 .264-.264.265.265 0 0 0 -.264-.266h-3.44v-3.97c0-.97.446-1.38.912-1.62.466-.233.939-.236.939-.236h2.65s.473.0033.939.236c.466.233.912.645.912 1.62v3.97h-.795a.265.265 0 0 0 -.264.266.265.265 0 0 0 .264.264h1.06a.265.265 0 0 0 .266-.264v-4.23c0-1.15-.613-1.79-1.21-2.09-.592-.296-1.18-.293-1.18-.293z" font-feature-settings="normal" font-variant-alternates="normal" font-variant-caps="normal" font-variant-east-asian="normal" font-variant-ligatures="normal" font-variant-numeric="normal" font-variant-position="normal" font-variation-settings="normal" inline-size="0" isolation="auto" mix-blend-mode="normal" shape-margin="0" shape-padding="0" text-decoration-color="rgb(0,0,0)" text-decoration-line="none" text-decoration-style="solid" text-indent="0" text-orientation="mixed" text-transform="none" white-space="normal"/><path d="m9.79 13.8a.265.265 0 0 0 -.266.266.265.265 0 0 0 .266.264.265.265 0 0 0 .264-.264.265.265 0 0 0 -.264-.266z" font-feature-settings="normal" font-variant-alternates="normal" font-variant-caps="normal" font-variant-east-asian="normal" font-variant-ligatures="normal" font-variant-numeric="normal" font-variant-position="normal" font-variation-settings="normal" inline-size="0" isolation="auto" mix-blend-mode="normal" shape-margin="0" shape-padding="0" text-decoration-color="rgb(0,0,0)" text-decoration-line="none" text-decoration-style="solid" text-indent="0" text-orientation="mixed" text-transform="none" white-space="normal"/><path d="m6.87 10.6a.265.265 0 0 0 -.178.0762.265.265 0 0 0 0 .375l1.32 1.32a.265.265 0 0 0 .375 0 .265.265 0 0 0 0-.373l-1.32-1.32a.265.265 0 0 0 -.195-.0762z" font-feature-settings="normal" font-variant-alternates="normal" font-variant-caps="normal" font-variant-east-asian="normal" font-variant-ligatures="normal" font-variant-numeric="normal" font-variant-position="normal" font-variation-settings="normal" inline-size="0" isolation="auto" mix-blend-mode="normal" shape-margin="0" shape-padding="0" text-decoration-color="rgb(0,0,0)" text-decoration-line="none" text-decoration-style="solid" text-indent="0" text-orientation="mixed" text-transform="none" white-space="normal"/><path d="m10 9.79a.265.265 0 0 0 -.174.0898l-1.85 2.12a.265.265 0 0 0 .0254.373.265.265 0 0 0 .373-.0234l1.85-2.12a.265.265 0 0 0 -.0254-.373.265.265 0 0 0 -.199-.0644z" font-feature-settings="normal" font-variant-alternates="normal" font-variant-caps="normal" font-variant-east-asian="normal" font-variant-ligatures="normal" font-variant-numeric="normal" font-variant-position="normal" font-variation-settings="normal" inline-size="0" isolation="auto" mix-blend-mode="normal" shape-margin="0" shape-padding="0" text-decoration-color="rgb(0,0,0)" text-decoration-line="none" text-decoration-style="solid" text-indent="0" text-orientation="mixed" text-transform="none" white-space="normal"/><path d="m8.47 2.65c-1.18 0-2.12.973-2.12 2.12 0 1.17.951 2.12 2.12 2.12 1.17 0 2.12-.951 2.12-2.12 0-1.17-.951-2.12-2.12-2.12zm0 .529c.88 0 1.59.708 1.59 1.59 0 .88-.708 1.59-1.59 1.59-.88 0-1.59-.708-1.59-1.59 0-.856.694-1.59 1.59-1.59z" font-feature-settings="normal" font-variant-alternates="normal" font-variant-caps="normal" font-variant-east-asian="normal" font-variant-ligatures="normal" font-variant-numeric="normal" font-variant-position="normal" font-variation-settings="normal" inline-size="0" isolation="auto" mix-blend-mode="normal" shape-margin="0" shape-padding="0" text-decoration-color="rgb(0,0,0)" text-decoration-line="none" text-decoration-style="solid" text-indent="0" text-orientation="mixed" text-transform="none" white-space="normal"/><path d="m2.65 8.73s-.452-.0034-.912.227c-.46.23-.939.745-.939 1.63v2.64c-.00056.146.118.265.264.266h3.97c.147.000562.266-.119.266-.266v-3.44c0-.259.0356-.474.0937-.662.0453-.148-.0447-.302-.195-.336-.14-.0374-.164-.0598-.428-.0606zm0 .529h2.11s.0672.0105.084.0117c-.0318.166-.0742.322-.0742.518v3.18h-3.44v-2.38c0-.706.313-.985.646-1.15s.676-.172.676-.172z" font-feature-settings="normal" font-variant-alternates="normal" font-variant-caps="normal" font-variant-east-asian="normal" font-variant-ligatures="normal" font-variant-numeric="normal" font-variant-position="normal" font-variation-settings="normal" inline-size="0" isolation="auto" mix-blend-mode="normal" shape-margin="0" shape-padding="0" text-decoration-color="rgb(0,0,0)" text-decoration-line="none" text-decoration-style="solid" text-indent="0" text-orientation="mixed" text-transform="none" white-space="normal"/><path d="m3.7 5.03c-.874 0-1.59.714-1.59 1.59 0 .874.714 1.59 1.59 1.59s1.59-.714 1.59-1.59c0-.874-.714-1.59-1.59-1.59zm0 .529c.588 0 1.06.471 1.06 1.06 0 .588-.471 1.06-1.06 1.06s-1.06-.471-1.06-1.06c0-.588.471-1.06 1.06-1.06z" font-feature-settings="normal" font-variant-alternates="normal" font-variant-caps="normal" font-variant-east-asian="normal" font-variant-ligatures="normal" font-variant-numeric="normal" font-variant-position="normal" font-variation-settings="normal" inline-size="0" isolation="auto" mix-blend-mode="normal" shape-margin="0" shape-padding="0" text-decoration-color="rgb(0,0,0)" text-decoration-line="none" text-decoration-style="solid" text-indent="0" text-orientation="mixed" text-transform="none" white-space="normal"/><path d="m11.7 8.79c-.151.0336-.241.188-.195.336.0582.188.0957.403.0957.662v3.44c-.00056.146.118.265.264.266h3.97c.147.000562.266-.119.266-.266v-2.64c0-.882-.479-1.4-.939-1.63s-.912-.227-.912-.227h-2.12c-.265.000781-.292.0303-.43.0606zm.439.469h2.11s.34.005.674.172.648.447.648 1.15v2.38h-3.44v-3.18c0-.196-.0444-.351-.0762-.518.0176-.0013.0859-.0117.0859-.0117z" font-feature-settings="normal" font-variant-alternates="normal" font-variant-caps="normal" font-variant-east-asian="normal" font-variant-ligatures="normal" font-variant-numeric="normal" font-variant-position="normal" font-variation-settings="normal" inline-size="0" isolation="auto" mix-blend-mode="normal" shape-margin="0" shape-padding="0" text-decoration-color="rgb(0,0,0)" text-decoration-line="none" text-decoration-style="solid" text-indent="0" text-orientation="mixed" text-transform="none" white-space="normal"/><path d="m13.2 5.03c-.874 0-1.59.714-1.59 1.59 0 .874.714 1.59 1.59 1.59.874 0 1.59-.714 1.59-1.59 0-.874-.714-1.59-1.59-1.59zm0 .529c.588 0 1.06.471 1.06 1.06 0 .588-.471 1.06-1.06 1.06-.588 0-1.06-.471-1.06-1.06 0-.588.471-1.06 1.06-1.06z" font-feature-settings="normal" font-variant-alternates="normal" font-variant-caps="normal" font-variant-east-asian="normal" font-variant-ligatures="normal" font-variant-numeric="normal" font-variant-position="normal" font-variation-settings="normal" inline-size="0" isolation="auto" mix-blend-mode="normal" shape-margin="0" shape-padding="0" text-decoration-color="rgb(0,0,0)" text-decoration-line="none" text-decoration-style="solid" text-indent="0" text-orientation="mixed" text-transform="none" white-space="normal"/></g></svg>