<svg id="Layer_1" enable-background="new 0 0 48 48" height="512" viewBox="0 0 48 48" width="512" xmlns="http://www.w3.org/2000/svg"><g><path d="m44.62 21.22-20-16c-.37-.29-.88-.29-1.25 0l-20 16c-.43.34-.5.97-.16 1.41.34.43.97.5 1.41.16l2.38-1.91v21.12c0 .55.45 1 1 1h32c.55 0 1-.45 1-1v-21.12l2.38 1.9c.18.15.4.22.62.22.29 0 .58-.13.78-.38.35-.43.28-1.06-.16-1.4zm-5.62 19.78h-30v-21.72l15-12 15 12z"/><path d="m12 28c0 6.62 5.38 12 12 12s12-5.38 12-12-5.38-12-12-12-12 5.38-12 12zm22 0c0 5.51-4.49 10-10 10s-10-4.49-10-10 4.49-10 10-10 10 4.49 10 10z"/><path d="m23 21v6.7l-1.83 2.75c-.31.46-.18 1.08.28 1.39.17.11.36.16.55.16.32 0 .64-.16.83-.45l2-3c.11-.16.17-.35.17-.55v-7c0-.55-.45-1-1-1s-1 .45-1 1z"/></g></svg>