<svg id="Layer_1" enable-background="new 0 0 512.002 512.002" height="512" viewBox="0 0 512.002 512.002" width="512" xmlns="http://www.w3.org/2000/svg"><g><g><path d="m78.497 60c5.514 0 10 4.486 10 10 .523 13.259 19.474 13.266 20 0-1.648-39.8-58.36-39.786-60.001 0v40c1.651 39.803 58.36 39.782 60.001 0 0-5.523-4.477-10-10-10s-10 4.477-10 10c0 5.514-4.486 10-10 10s-10-4.486-10-10v-40c0-5.514 4.486-10 10-10z"/><path d="m183.499 110v-40c-1.653-39.809-58.363-39.778-60 0v40c1.652 39.808 58.362 39.778 60 0zm-20 0c-.551 13.269-19.454 13.258-20 0v-40c.551-13.269 19.455-13.26 20 0z"/><path d="m263.5 140c5.522 0 10-4.477 10-10v-80c0-4.38-2.851-8.251-7.034-9.55-4.182-1.3-8.725.275-11.206 3.884l-19.26 28.015-19.26-28.014c-2.481-3.609-7.022-5.184-11.207-3.884-4.183 1.299-7.034 5.169-7.034 9.55v80c.528 13.268 19.477 13.258 20 0v-47.805l9.26 13.469c3.75 5.723 12.732 5.722 16.48 0l9.26-13.469v47.804c.001 5.523 4.479 10 10.001 10z"/><path d="m308.502 130v-80c-.528-13.268-19.476-13.258-20 0v80c.529 13.268 19.477 13.258 20 0z"/><path d="m343.503 130v-41.825l26.284 46.728c1.802 3.204 5.167 5.099 8.715 5.098.841 0 1.692-.106 2.535-.327 4.398-1.152 7.466-5.127 7.466-9.674v-80c-.528-13.268-19.476-13.258-20 0v41.825l-26.284-46.728c-2.229-3.963-6.853-5.923-11.25-4.771-4.398 1.152-7.466 5.127-7.466 9.674v80c.529 13.268 19.477 13.258 20 0z"/><path d="m433.504 60c5.514 0 10 4.486 10 10 .523 13.259 19.474 13.266 20 0-1.648-39.8-58.359-39.786-60 0v40c1.653 39.808 58.362 39.778 60 0v-10c0-5.523-4.478-10-10-10h-9.999c-13.267.528-13.258 19.475-.001 20-.551 13.269-19.454 13.259-20 0v-40c0-5.514 4.487-10 10-10z"/><path d="m482 0h-451.999c-16.542 0-30 13.458-30 30v120c0 16.542 13.458 30 30 30h78.494c13.268-.528 13.258-19.477 0-20h-78.494c-5.514 0-10-4.486-10-10v-120c0-5.514 4.486-10 10-10h451.999c5.514 0 10 4.486 10 10v120c0 5.514-4.486 10-10 10h-283.504c-13.268.528-13.258 19.477 0 20h22.504v20.001h-120c-16.542 0-30 13.458-30 30v120c0 16.542 13.458 30 30 30h120v122c0 5.523 4.477 10 10 10h50.001c5.522 0 10-4.477 10-10v-122h120c16.542 0 30-13.458 30-30v-120c0-16.542-13.458-30-30-30h-120v-20.001h190.999c16.542 0 30-13.458 30-30v-120c0-16.542-13.458-30-30-30zm-210.999 492.002h-30.001v-112h30.001zm150-262.001v120c0 5.514-4.486 10-10 10h-310.001c-5.514 0-10-4.486-10-10v-120c0-5.514 4.486-10 10-10h310.001c5.514 0 10 4.486 10 10zm-150-30h-30.001v-20.001h30.001z"/><path d="m131.855 297.039 10.634 4.404c4.916 2.036 7.258 7.693 5.222 12.609-2.036 4.917-7.694 7.258-12.609 5.223l-5.316-2.202c-5.101-2.114-10.952.31-13.065 5.412-2.114 5.102.31 10.952 5.412 13.065l5.317 2.203c3.699 1.532 7.533 2.257 11.308 2.257 11.641-.001 22.708-6.899 27.432-18.305 6.256-15.104-.941-32.483-16.046-38.74l-10.634-4.404c-4.916-2.037-7.259-7.692-5.222-12.61.978-2.361 2.835-4.208 5.231-5.2 2.396-.993 5.016-1 7.377-.022l5.317 2.202c5.104 2.115 10.953-.31 13.065-5.412 2.113-5.103-.31-10.952-5.412-13.065l-5.317-2.202c-14.551-6.389-32.97 1.24-38.74 16.047-6.257 15.103.941 32.482 16.046 38.74z"/><path d="m213.44 340.001c16.542 0 30-13.458 30-30v-40c-1.653-39.809-58.363-39.778-60 0v40c-.001 16.542 13.457 30 30 30zm-10.001-70c.551-13.269 19.455-13.26 20 0v40c-.551 13.27-19.455 13.259-20 0z"/><path d="m288.441 340.001c16.542 0 30-13.458 30-30v-40c-1.653-39.809-58.362-39.778-60 0v40c0 16.542 13.458 30 30 30zm-10-70c.551-13.27 19.454-13.259 20 0v40c-.551 13.27-19.454 13.259-20 0z"/><path d="m343.443 340.001c5.522 0 10-4.477 10-10v-41.825l26.284 46.728c1.802 3.204 5.167 5.099 8.715 5.098.841 0 1.692-.106 2.535-.327 4.398-1.152 7.466-5.127 7.466-9.674v-80c-.528-13.268-19.476-13.258-20 0v41.825l-26.284-46.728c-2.229-3.963-6.853-5.924-11.25-4.771-4.398 1.152-7.466 5.127-7.466 9.674v80c0 5.523 4.477 10 10 10z"/><path d="m153.492 160c-5.523 0-9.996 4.477-9.996 10 .528 13.263 19.479 13.263 20.003 0 0-5.523-4.477-10-10-10z"/></g></g></svg>