<svg id="Layer_1" height="512" viewBox="0 0 64 64" width="512" xmlns="http://www.w3.org/2000/svg" data-name="Layer 1"><path d="m32 12a20 20 0 1 0 20 20 20.023 20.023 0 0 0 -20-20zm0 38a18 18 0 1 1 18-18 18.021 18.021 0 0 1 -18 18z"/><path d="m11.766 42.943a22.81 22.81 0 0 1 -1.527-3.477l-1.892.648a24.976 24.976 0 0 0 1.66 3.782z"/><path d="m10.271 24.441-1.889-.656a25 25 0 0 0 -1.028 4l1.973.334a22.865 22.865 0 0 1 .944-3.678z"/><path d="m7 32a25.133 25.133 0 0 0 .337 4.111l1.973-.326a23.169 23.169 0 0 1 -.31-3.785v-.1h-2z"/><path d="m22.832 10.9a22.747 22.747 0 0 1 3.595-1.22l-.483-1.942a24.913 24.913 0 0 0 -3.911 1.328z"/><path d="m47.621 15.119 1.358-1.469a25.173 25.173 0 0 0 -3.248-2.545l-1.1 1.67a23.207 23.207 0 0 1 2.99 2.344z"/><path d="m30.173 9.071a23.973 23.973 0 0 1 3.8.012l.17-1.992a25.569 25.569 0 0 0 -4.124-.014z"/><path d="m50.128 46.155a23.21 23.21 0 0 1 -2.576 2.79l1.353 1.473a25.318 25.318 0 0 0 2.8-3.03z"/><path d="m41.3 10.958.81-1.828a24.759 24.759 0 0 0 -3.9-1.352l-.494 1.938a22.789 22.789 0 0 1 3.584 1.242z"/><path d="m13.9 17.807-1.572-1.235a24.971 24.971 0 0 0 -2.272 3.445l1.754.959a23.161 23.161 0 0 1 2.09-3.169z"/><path d="m16.482 15.023a23.218 23.218 0 0 1 3-2.324l-1.082-1.678a25.33 25.33 0 0 0 -3.264 2.526z"/><path d="m33.875 54.925.16 1.994a24.934 24.934 0 0 0 4.073-.671l-.488-1.939a22.983 22.983 0 0 1 -3.745.616z"/><path d="m57 32.054h-2a23.149 23.149 0 0 1 -.318 3.783l1.972.332a25.157 25.157 0 0 0 .346-4.115z"/><path d="m25.841 56.235a25.153 25.153 0 0 0 4.069.678l.166-1.992a23.218 23.218 0 0 1 -3.745-.625z"/><path d="m56.672 27.94a25.147 25.147 0 0 0 -1-4l-1.895.644a22.741 22.741 0 0 1 .92 3.682z"/><path d="m55.636 40.164-1.891-.652a23.053 23.053 0 0 1 -1.531 3.469l1.756.957a25.029 25.029 0 0 0 1.666-3.774z"/><path d="m18.312 52.922a24.9 24.9 0 0 0 3.626 1.97l.8-1.83a23.186 23.186 0 0 1 -3.334-1.812z"/><path d="m12.266 47.349a25.177 25.177 0 0 0 2.793 3.036l1.355-1.471a23.14 23.14 0 0 1 -2.57-2.794z"/><path d="m54.019 20.151a25.082 25.082 0 0 0 -2.252-3.46l-1.58 1.227a23.125 23.125 0 0 1 2.072 3.182z"/><path d="m41.213 53.081.8 1.832a25.146 25.146 0 0 0 3.63-1.963l-1.091-1.676a23.054 23.054 0 0 1 -3.339 1.807z"/><path d="m32 25a4 4 0 1 0 -4-4 4 4 0 0 0 4 4zm0-6a2 2 0 1 1 -2 2 2 2 0 0 1 2-2z"/><path d="m39.551 32.056a4 4 0 1 0 -5.1 0 3.967 3.967 0 0 0 -2.451 1.326 3.967 3.967 0 0 0 -2.449-1.326 4 4 0 1 0 -5.1 0 3.992 3.992 0 0 0 -3.451 3.944v6a1 1 0 0 0 1 1h20a1 1 0 0 0 1-1v-6a3.992 3.992 0 0 0 -3.449-3.944zm-12.551-5.056a2 2 0 1 1 -2 2 2 2 0 0 1 2-2zm4 14h-8v-5a2 2 0 0 1 2-2h4a2 2 0 0 1 2 2zm6-14a2 2 0 1 1 -2 2 2 2 0 0 1 2-2zm4 14h-8v-5a2 2 0 0 1 2-2h4a2 2 0 0 1 2 2z"/><path d="m5.657 9.449-.347 1.969 6.01 1.061a1.031 1.031 0 0 0 .174.015 1 1 0 0 0 .985-1.174l-1.061-6.01-1.969.347.509 2.887-7.658-7.656-1.412 1.412 7.656 7.658z"/><path d="m58.343 54.551.347-1.969-6.01-1.061a1 1 0 0 0 -1.159 1.159l1.061 6.01 1.969-.347-.509-2.887 7.658 7.656 1.412-1.412-7.656-7.656z"/><path d="m61.7.888-7.658 7.656.509-2.887-1.969-.347-1.061 6.01a1 1 0 0 0 .985 1.174 1.031 1.031 0 0 0 .174-.015l6.01-1.061-.347-1.969-2.887.509 7.656-7.658z"/><path d="m11.32 51.521-6.01 1.061.347 1.969 2.887-.509-7.656 7.658 1.412 1.412 7.656-7.656-.509 2.887 1.969.347 1.061-6.01a1 1 0 0 0 -.277-.88.99.99 0 0 0 -.88-.279z"/></svg>