<svg id="Layer_1" enable-background="new 0 0 512 512" height="512" viewBox="0 0 512 512" width="512" xmlns="http://www.w3.org/2000/svg"><g><g><g id="XMLID_1_"><g><path d="m475.27 501.35c.02.36.01.71-.03 1.07.02-.23.03-.46.03-.69z"/><path d="m475.27 501.35v.38c0 .23-.01.46-.03.69-.16 1.59-.86 3.08-1.99 4.23-.15.15-.3.29-.46.43-.02.02-.04.04-.06.05-.18.14-.36.27-.55.4-.16.11-.33.21-.51.31-.24.14-.49.26-.75.35-.14.07-.29.12-.44.16-.08.04-.17.06-.27.09-.14.04-.29.08-.45.11-.21.05-.42.08-.63.1-.09.01-.18.02-.27.03-.18.01-.35.02-.53.02-1.42 0-2.87-.43-4.09-1.36l-17.07-12.55h14.22v-6.79l11.07 8.14c1.72 1.28 2.69 3.22 2.81 5.21z"/><path d="m475.2 216.99.07 284.36c-.12-1.99-1.09-3.93-2.81-5.21l-11.07-8.14-.06-255.18 11.63-10.71c.09-.09.19-.18.26-.27.16-.15.29-.3.41-.46.04-.05.09-.11.12-.16.12-.14.22-.28.3-.42.03-.03.05-.07.06-.1.11-.15.2-.32.29-.48.08-.16.16-.33.23-.49.1-.22.18-.44.24-.66.08-.23.14-.46.18-.69.09-.45.14-.91.14-1.37 0-.22-.01-.43-.03-.65.03.21.04.42.04.63z"/><path d="m475.16 216.36c.02.22.03.43.03.65 0 .46-.05.92-.14 1.37-.05.23-.11.46-.18.69-.07.22-.15.45-.24.66-.07.16-.15.33-.23.49s-.17.32-.29.48c-.01.03-.03.07-.06.1-.08.14-.18.28-.3.42-.03.05-.08.11-.12.16-.13.16-.26.31-.41.46-1.35 1.43-3.17 2.12-4.95 2.12-1.76 0-3.51-.66-4.86-1.98l-2.08-2.03v-2.96c0-2.1.93-3.98 2.41-5.25.06-.07.12-.12.18-.16.15-.12.31-.24.47-.34.16-.12.33-.22.51-.31.04-.04.08-.06.12-.07.17-.09.34-.18.52-.25.01-.01.02-.02.04-.01.13-.06.26-.11.39-.15.13-.05.26-.1.39-.13.19-.06.38-.1.58-.14.21-.04.43-.07.66-.09 2.04-.19 4.14.53 5.66 2.12.07.07.14.14.2.22.08.08.15.17.21.25.09.1.17.2.23.31.07.08.12.16.17.24.08.11.15.22.21.34.06.09.11.19.14.28.1.17.18.35.25.52.09.21.16.42.22.63.07.22.13.44.17.66.03.16.06.32.07.48.01.06.02.13.03.19z"/><path d="m475.08 215.74c.04.2.07.39.08.59-.01-.06-.02-.13-.03-.19-.01-.14-.03-.27-.05-.4z"/><path d="m475.05 218.38c.09-.45.14-.91.14-1.37 0 .46-.05.92-.14 1.37z"/><path d="m475.13 216.14c-.01-.16-.04-.32-.07-.48.01.02.01.05.02.08.02.13.04.26.05.4z"/><path d="m475.08 215.74c-.01-.03-.01-.06-.02-.08-.04-.23-.1-.44-.17-.66-.04-.16-.1-.33-.16-.49.16.39.28.81.35 1.23z"/><path d="m475.06 215.66c-.04-.22-.1-.44-.17-.66.07.22.13.43.17.66z"/><path d="m474.87 219.07c.07-.23.13-.46.18-.69-.04.23-.1.46-.18.69z"/><path d="m474.73 214.51c.06.16.12.33.16.49-.06-.21-.13-.42-.22-.63.02.05.04.1.06.14z"/><path d="m474.63 219.73c.09-.21.17-.44.24-.66-.06.22-.14.44-.24.66z"/><path d="m474.73 214.51c-.02-.04-.04-.09-.06-.14-.07-.17-.15-.35-.25-.52-.04-.1-.08-.19-.14-.28-.04-.07-.08-.14-.12-.21.24.36.43.74.57 1.15z"/><path d="m474.42 213.85c-.03-.09-.08-.19-.14-.28.06.09.1.18.14.28z"/><path d="m474.11 220.7c.12-.16.21-.32.29-.48-.09.16-.18.33-.29.48z"/><path d="m474.28 213.57c-.06-.12-.13-.23-.21-.34.03.04.06.08.09.13.04.07.08.14.12.21z"/><path d="m475.24 502.42c-.11 1.2-.53 2.39-1.29 3.44-.35.46-.73.87-1.16 1.22.16-.14.31-.28.46-.43 1.13-1.15 1.83-2.64 1.99-4.23z"/><path d="m474.16 213.36c-.03-.05-.06-.09-.09-.13-.05-.08-.1-.16-.17-.24-.06-.11-.14-.21-.23-.31-.06-.09-.13-.17-.21-.25-.03-.04-.07-.09-.11-.13-.03-.03-.06-.06-.09-.09-.05-.06-.11-.12-.17-.18l-.41-.4c.17.14.33.29.49.45.38.38.72.81.99 1.28z"/><path d="m474.07 213.23c-.05-.08-.1-.16-.17-.24.07.08.12.16.17.24z"/><path d="m473.75 221.22c.12-.14.22-.28.3-.42-.08.14-.18.28-.3.42z"/><path d="m473.9 212.99c-.06-.11-.14-.21-.23-.31.09.1.17.2.23.31z"/><path d="m473.67 212.68c-.06-.08-.13-.17-.21-.25.08.08.15.16.21.25z"/><path d="m473.22 221.84c.15-.15.28-.3.41-.46-.12.16-.25.31-.41.46z"/><path d="m473.46 212.43c-.06-.08-.13-.15-.2-.22.03.03.06.06.09.09.04.04.08.09.11.13z"/><path d="m473.09 212.03c.06.06.12.12.17.18-1.52-1.59-3.62-2.31-5.66-2.12.22-.03.44-.04.67-.04 1.67 0 3.21.6 4.41 1.58z"/><path d="m473.22 221.84c-.07.09-.17.18-.26.27l-11.63 10.71v-12.87l2.08 2.03c1.35 1.32 3.1 1.98 4.86 1.98 1.78 0 3.6-.69 4.95-2.12z"/><path d="m472.18 507.53c.19-.13.37-.26.55-.4-.18.15-.36.28-.55.4z"/><path d="m399.29 140.16 73.39 71.47c-1.2-.98-2.74-1.58-4.41-1.58-.23 0-.45.01-.67.04-.23.02-.45.05-.66.09-.2.04-.39.08-.58.14-.13.03-.26.08-.39.13-.13.04-.26.08-.39.15-.02-.01-.03 0-.04.01-.18.07-.35.15-.52.25-.04.01-.08.03-.12.07-.17.08-.35.19-.51.31-.16.1-.32.21-.47.34-.06.04-.12.09-.18.16-.07.04-.13.1-.2.16l-5.38 4.96-58.87-57.33z"/><path d="m471.67 507.84c.18-.1.35-.2.51-.31-.17.12-.34.22-.51.31z"/><path d="m470.48 508.35c.15-.04.3-.09.44-.16-.14.06-.29.12-.44.16z"/><path d="m469.76 508.55c.16-.03.31-.07.45-.11-.15.04-.3.08-.45.11z"/><path d="m468.86 508.68.27-.03c-.09.01-.18.02-.27.03z"/><path d="m468.33 508.7c.18 0 .35-.01.53-.02-.18.01-.35.02-.53.02z"/><path d="m468.33 508.7h-424.66c1.42 0 2.87-.43 4.13-1.36l17.07-12.55h382.3l17.07 12.55c1.22.93 2.67 1.36 4.09 1.36z"/><path d="m466.94 210.18c-.2.04-.39.08-.58.14.19-.06.38-.1.58-.14z"/><path d="m466.36 210.32c-.13.03-.26.08-.39.13.13-.05.26-.1.39-.13z"/><path d="m465.97 210.45c-.13.04-.26.09-.39.15.13-.07.26-.11.39-.15z"/><path d="m465.54 210.61c-.18.07-.35.16-.52.25.17-.1.34-.18.52-.25z"/><path d="m464.9 210.93c-.18.09-.35.19-.51.31.16-.12.34-.23.51-.31z"/><path d="m464.39 211.24c-.16.1-.32.22-.47.34.15-.13.31-.24.47-.34z"/><path d="m463.74 211.74c-1.48 1.27-2.41 3.15-2.41 5.25v2.96l-3.17-3.09 5.38-4.96c.07-.06.13-.12.2-.16z"/><path d="m461.39 488v6.79h-14.22l-150.23-110.48 10.41-9.59z"/><path d="m461.33 219.95v12.87l-64.07 59.04c1.26-1.26 2.03-3 2.03-4.91v-15.84l58.87-54.25z"/><path d="m399.29 271.11v15.84c0 1.91-.77 3.65-2.03 4.91-1.25 1.25-2.98 2.03-4.9 2.03-3.83 0-6.94-3.11-6.94-6.94v-3.06z"/><path d="m399.29 159.53v111.58l-13.87 12.78v-140.37c.1 1.66.8 3.28 2.08 4.53z"/><path d="m399.29 140.16v19.37l-11.79-11.48c-1.28-1.25-1.98-2.87-2.08-4.53v-.88c.09-1.6.74-3.17 1.95-4.4 2.67-2.74 7.07-2.81 9.81-.13z"/><path d="m399.29 67.45v72.71l-2.11-2.05c-2.74-2.68-7.14-2.61-9.81.13-1.21 1.23-1.86 2.8-1.95 4.4v-68.25h-71.78c1.82 0 3.6-.7 4.92-2.05 2.71-2.71 2.68-7.1-.03-9.81l-2.03-2.01h75.86c3.83 0 6.93 3.1 6.93 6.93z"/><path d="m397.26 291.86-89.91 82.86-6.79-4.99c-2.75-2-6.47-1.7-8.87.54l93.73-86.38v3.06c0 3.83 3.11 6.94 6.94 6.94 1.92 0 3.65-.78 4.9-2.03z"/><path d="m385.42 142.64v.88c-.02-.3-.02-.59 0-.88z"/><path d="m342.71 192.25c0 9.05-1.62 17.67-4.79 25.7-3.17 8.02-7.99 15.65-14.37 22.66-5.68 6.27-11.69 11.06-17.87 14.2-6.14 3.14-12.68 4.72-19.36 4.72-4.22 0-7.69-.62-10.27-1.91-2.54-1.26-4.43-3.07-5.61-5.39-.76-1.48-1.36-4.12-1.72-7.89l-.17-1.52-.99 1.16c-4.03 4.65-8.62 8.45-13.61 11.26-4.95 2.81-9.97 4.23-14.96 4.23-5.48 0-10.87-1.62-16.06-4.82-5.18-3.21-9.44-8.23-12.68-14.9-3.27-6.71-4.92-14.17-4.92-22.17 0-9.87 2.58-19.91 7.66-29.86 5.06-9.91 11.46-17.47 18.96-22.43 7.5-4.95 14.87-7.46 21.9-7.46 5.35 0 10.54 1.42 15.4 4.23 4.85 2.8 9.11 7.13 12.65 12.88l.86 1.39.36-1.62 1.78-8.16c.76-3.5 3.9-6.01 7.47-6.01 2.31 0 4.49 1.02 5.94 2.84 1.46 1.81 2.02 4.13 1.52 6.41l-11.49 53.51c-2.54 11.96-2.84 14.2-2.84 14.83 0 1.88.72 3.53 2.14 4.89 1.43 1.32 3.14 2.01 5.16 2.01 3.5 0 7.96-1.95 13.54-5.91 7.27-5.09 13.08-12.02 17.31-20.58 4.23-8.55 6.38-17.51 6.38-26.59 0-10.6-2.75-20.68-8.2-29.89-5.41-9.22-13.64-16.72-24.41-22.23-10.73-5.52-22.79-8.33-35.77-8.33-14.83 0-28.57 3.54-40.83 10.47-12.25 6.97-21.9 17.05-28.67 30.03-6.74 12.95-10.18 27.02-10.18 41.85 0 15.53 3.41 29.1 10.18 40.33s16.71 19.66 29.5 25.04c12.75 5.35 27.05 8.06 42.54 8.06 16.58 0 30.66-2.81 41.89-8.39 9.97-4.95 17.83-10.93 23.35-17.8 1.22-1.52 3.07-2.38 5.05-2.38 2.61 0 4.89 1.49 5.95 3.83 1.06 2.38.66 5.09-1.06 7.04-2.41 2.74-5.22 5.51-8.39 8.19-7.73 6.8-17.07 12.25-27.74 16.22-10.71 3.96-23.75 5.98-38.82 5.98-13.9 0-26.89-1.82-38.61-5.39-11.69-3.57-21.8-8.98-30.03-16.12-8.22-7.13-14.53-15.46-18.69-24.74-5.26-11.79-7.9-24.71-7.9-38.38 0-15.23 3.17-29.96 9.42-43.77 3.83-8.49 8.48-16.05 13.9-22.53 5.42-6.47 11.7-12.02 18.7-16.51 7-4.5 14.86-7.9 23.35-10.15 8.49-2.24 17.87-3.4 27.88-3.4 15.49 0 29.6 3.21 41.92 9.55 12.29 6.34 22.13 15.89 29.23 28.41 6.05 10.8 9.12 22.66 9.12 35.31zm-69.04 25.43c2.28-6.41 3.4-12.85 3.4-19.29 0-8.59-2.14-15.26-6.4-19.98-4.26-4.73-9.45-7.1-15.59-7.1-4.03 0-7.87 1.02-11.43 3.07-3.57 2.05-7.04 5.35-10.38 9.91-3.33 4.56-6.04 10.07-8.06 16.58-2.01 6.51-3.04 12.49-3.04 17.9 0 8.66 2.05 15.4 6.15 20.19 4.09 4.79 8.82 7.2 14.1 7.2 3.54 0 7.27-1.06 11.17-3.17 4-2.15 7.76-5.29 11.33-9.45s6.47-9.45 8.75-15.86z"/><path d="m318.53 62.53c2.71 2.71 2.74 7.1.03 9.81-1.32 1.35-3.1 2.05-4.92 2.05-1.75 0-3.53-.66-4.89-2.02l-11.94-11.85h19.69z"/><path d="m260.92 5.35 55.58 55.17h-19.69l-40.81-40.51 4.89-4.85c2.71-2.71 2.74-7.1.03-9.81z"/><path d="m313.64 74.39h-115.38c1.75 0 3.53-.7 4.89-2.02l11.96-11.85h81.7l11.94 11.85c1.36 1.36 3.14 2.02 4.89 2.02z"/><path d="m307.35 374.72-10.41 9.59-4.6-3.38c-3.08-2.28-3.74-6.61-1.49-9.71.26-.35.54-.66.84-.95 2.4-2.24 6.12-2.54 8.87-.54z"/><path d="m296.94 384.31-36.15 33.32c-1.29 1.19-2.97 1.85-4.72 1.85h-.17c-1.75 0-3.43-.66-4.69-1.85l-36.13-33.3 4.62-3.4c3.1-2.28 3.76-6.61 1.48-9.71-.17-.23-.34-.44-.53-.64l35.35 32.58 35.69-32.89c-.3.29-.58.6-.84.95-2.25 3.1-1.59 7.43 1.49 9.71z"/><path d="m260.92 5.35c2.71 2.71 2.68 7.1-.03 9.81l-4.89 4.85-4.89-4.85c-2.71-2.71-2.74-7.1-.03-9.81.18-.18.36-.34.55-.5.36-.29.74-.54 1.14-.75 0 0 0 0 .01-.01.6-.31 1.24-.53 1.89-.66.88-.17 1.78-.17 2.66 0 .65.13 1.29.35 1.89.66l.01.01c.4.21.78.46 1.14.75.18.14.35.3.52.47z"/><path d="m260.37 4.85c-.36-.29-.74-.54-1.14-.75.4.2.78.45 1.14.75z"/><path d="m257.33 3.43c.65.12 1.29.34 1.89.66-.6-.31-1.24-.53-1.89-.66z"/><path d="m256 20.01-40.89 40.51h-19.71l55.68-55.17c-2.71 2.71-2.68 7.1.03 9.81z"/><path d="m252.78 4.09c.6-.32 1.24-.54 1.89-.66-.65.13-1.29.35-1.89.66z"/><path d="m251.63 4.85c.36-.3.74-.55 1.14-.75-.4.21-.78.46-1.14.75z"/><path d="m221.18 371.22c2.28 3.1 1.62 7.43-1.48 9.71l-4.62 3.4-10.42-9.59 6.81-5.01c2.57-1.91 6.05-1.76 8.44.17l.72.66c.01.01.02.02.02.02.19.2.36.41.53.64z"/><path d="m220.63 370.56-.72-.66c.26.2.5.42.72.66z"/><path d="m126.58 283.89 93.33 86.01c-2.39-1.93-5.87-2.08-8.44-.17l-6.81 5.01-89.92-82.88c1.25 1.25 2.98 2.03 4.9 2.03 3.83 0 6.94-3.11 6.94-6.94z"/><path d="m215.11 60.52-11.96 11.85c-1.36 1.32-3.14 2.02-4.89 2.02-1.78 0-3.57-.7-4.92-2.05-2.71-2.71-2.68-7.1.03-9.81l2.03-2.01z"/><path d="m215.08 384.33-150.21 110.46h-14.26v-6.77l154.05-113.28z"/><path d="m198.26 74.39h-71.68v68.28c-.09-1.6-.74-3.17-1.95-4.4-2.67-2.74-7.07-2.8-9.81-.13l-2.11 2.05v-72.74c0-3.83 3.1-6.93 6.93-6.93h75.76l-2.03 2.01c-2.71 2.71-2.74 7.1-.03 9.81 1.35 1.35 3.14 2.05 4.92 2.05z"/><path d="m126.58 142.67c.02.29.02.59 0 .88z"/><path d="m126.58 283.89v3.06c0 3.83-3.11 6.94-6.94 6.94-1.92 0-3.65-.78-4.9-2.03-1.26-1.26-2.03-3-2.03-4.91v-15.84z"/><path d="m126.58 143.55v140.34l-13.87-12.78v-111.55l11.79-11.48c1.28-1.25 1.98-2.87 2.08-4.53z"/><path d="m126.58 142.67v.88c-.1 1.66-.8 3.28-2.08 4.53l-11.79 11.48v-19.37l2.11-2.05c2.74-2.67 7.14-2.61 9.81.13 1.21 1.23 1.86 2.8 1.95 4.4z"/><path d="m114.74 291.86-64.07-59.04v-12.86l3.18-3.1 58.86 54.25v15.84c0 1.91.77 3.65 2.03 4.91z"/><path d="m112.71 140.19v19.37l-58.86 57.3-5.39-4.96c-.05-.05-.1-.09-.16-.13-.09-.08-.18-.16-.28-.23-.13-.12-.27-.21-.41-.3-.17-.12-.34-.22-.51-.31-.04-.03-.08-.05-.12-.07-.15-.08-.29-.15-.44-.21-.06-.03-.12-.06-.17-.07-.09-.05-.18-.08-.27-.11-.15-.06-.31-.11-.47-.15-.19-.06-.39-.11-.59-.14-.06-.01-.12-.02-.19-.03-.15-.03-.3-.05-.46-.06-.22-.03-.44-.04-.66-.04-1.59 0-3.07.54-4.24 1.45z"/><path d="m64.87 494.79-17.07 12.55c-1.26.93-2.71 1.36-4.13 1.36-.18 0-.35-.01-.53-.02-.09-.01-.18-.02-.27-.03-.21-.02-.42-.05-.63-.1-.16-.03-.31-.07-.45-.11-.1-.03-.19-.05-.27-.09-.15-.04-.3-.09-.44-.16-.26-.09-.5-.21-.75-.35-.15-.08-.3-.17-.45-.27s-.29-.2-.43-.31c-.16-.12-.32-.25-.46-.39-.03-.03-.07-.06-.1-.09-.09-.09-.18-.18-.26-.27-.1-.1-.19-.21-.28-.31-.09-.11-.18-.22-.26-.34-.11-.16-.22-.31-.32-.47s-.2-.33-.28-.49c-.1-.2-.19-.41-.27-.62-.08-.17-.14-.34-.19-.52-.05-.16-.09-.33-.13-.5-.02-.09-.04-.19-.06-.29-.02-.14-.04-.27-.06-.41-.03-.28-.05-.55-.05-.83.01-2.13.99-4.23 2.84-5.59l11.04-8.12v6.77z"/><path d="m53.85 216.86-3.18 3.1v-2.97c0-1.91-.77-3.65-2.03-4.91-.11-.11-.22-.21-.34-.31.06.04.11.08.16.13z"/><path d="m50.67 216.99v2.97l-2.08 2.02c-1.35 1.32-3.1 1.98-4.86 1.98-1.55 0-3.09-.51-4.35-1.54l-.34-.31c-.56-.52-1.01-1.1-1.36-1.73-.57-1.03-.86-2.18-.87-3.33 0-.23.01-.46.03-.68.16-1.58.84-3.11 2.07-4.3l.37-.36c1.45-1.24 3.3-1.78 5.11-1.62.15.01.31.03.46.06.07.01.13.02.19.03.2.04.4.08.59.14.16.04.32.09.47.15.09.03.18.06.27.11.05.01.11.04.17.07.15.06.3.13.44.21.04.02.08.04.12.07.18.09.35.19.51.31.14.09.28.18.41.3.1.06.19.14.28.23.12.1.23.2.34.31 1.26 1.26 2.03 3 2.03 4.91z"/><path d="m50.67 219.96v12.86l-11.29-10.4c1.26 1.03 2.8 1.54 4.35 1.54 1.76 0 3.51-.66 4.86-1.98z"/><path d="m50.67 232.82-.06 255.2-11.04 8.12c-1.85 1.36-2.83 3.46-2.84 5.59l.07-284.74c0-.21.01-.41.04-.62-.02.22-.03.45-.03.68 0 1.15.28 2.3.87 3.33.28.54.65 1.04 1.1 1.5.19.2.39.38.6.54z"/><path d="m48.3 211.77c-.09-.09-.18-.17-.28-.23.1.07.19.15.28.23z"/><path d="m47.61 211.24c-.16-.12-.33-.22-.51-.31.17.09.34.19.51.31z"/><path d="m46.98 210.86c-.14-.08-.29-.15-.44-.21.15.06.29.13.44.21z"/><path d="m46.37 210.58c-.09-.05-.18-.08-.27-.11.09.03.18.06.27.11z"/><path d="m46.1 210.47c-.15-.06-.31-.11-.47-.15.16.04.32.09.47.15z"/><path d="m45.63 210.32c-.19-.06-.39-.1-.59-.14.2.03.4.08.59.14z"/><path d="m44.85 210.15c-.15-.03-.31-.05-.46-.06.16.01.31.03.46.06z"/><path d="m44.39 210.09c-1.81-.16-3.66.38-5.11 1.62l.21-.21c1.17-.91 2.65-1.45 4.24-1.45.22 0 .44.01.66.04z"/><path d="m43.14 508.68c.18.01.35.02.53.02-.18 0-.35-.01-.53-.02z"/><path d="m42.87 508.65.27.03c-.09-.01-.18-.02-.27-.03z"/><path d="m41.79 508.44c.14.04.29.08.45.11-.15-.03-.3-.07-.45-.11z"/><path d="m41.08 508.19c.14.07.29.12.44.16-.15-.04-.3-.1-.44-.16z"/><path d="m39.88 507.57c.15.1.3.19.45.27-.15-.08-.3-.17-.45-.27z"/><path d="m39.49 211.5-.21.21c-.22.18-.43.38-.63.59-.31.34-.58.69-.81 1.06.42-.72.99-1.35 1.65-1.86z"/><path d="m39.04 222.11.34.31c-.21-.16-.41-.34-.6-.54-.45-.46-.82-.96-1.1-1.5.35.63.8 1.21 1.36 1.73z"/><path d="m39.28 211.71-.37.36c-1.23 1.19-1.91 2.72-2.07 4.3.02-.21.05-.41.08-.62.16-.83.46-1.64.92-2.39.23-.37.5-.72.81-1.06.2-.21.41-.41.63-.59z"/><path d="m39.45 507.26c-.16-.12-.31-.25-.46-.39.14.14.3.27.46.39z"/><path d="m38.63 506.51c.08.09.17.18.26.27-.05-.04-.09-.08-.14-.13s-.09-.09-.12-.14z"/><path d="m38.09 505.86c.08.12.17.23.26.34-.1-.11-.19-.22-.26-.34z"/><path d="m37.77 505.39c.1.16.21.31.32.47-.13-.15-.23-.31-.32-.47z"/><path d="m37.49 504.9c.08.16.18.33.28.49-.11-.16-.2-.32-.28-.49z"/><path d="m37.03 503.76c.05.18.11.35.19.52-.08-.17-.14-.35-.19-.52z"/><path d="m37.84 213.36c-.46.75-.76 1.56-.92 2.39.15-.86.46-1.67.92-2.39z"/><path d="m36.92 215.75c-.03.21-.06.41-.08.62.01-.21.03-.41.08-.62z"/><path d="m36.84 502.97c.02.1.04.2.06.29-.02-.1-.04-.19-.06-.29z"/><path d="m36.81 217.05c.01 1.15.3 2.3.87 3.33-.59-1.03-.87-2.18-.87-3.33z"/><path d="m36.78 502.56c.02.14.04.27.06.41-.03-.14-.05-.27-.06-.41z"/></g></g></g></g></svg>