<svg height="480pt" viewBox="-24 0 480 480" width="480pt" xmlns="http://www.w3.org/2000/svg"><path d="m112 240c0 57.4375 46.5625 104 104 104s104-46.5625 104-104-46.5625-104-104-104c-57.410156.066406-103.933594 46.589844-104 104zm104-88c48.601562 0 88 39.398438 88 88s-39.398438 88-88 88-88-39.398438-88-88c.058594-48.578125 39.421875-87.941406 88-88zm0 0"/><path d="m216 280c-8.835938 0-16-7.164062-16-16h-16c.054688 14.546875 9.914062 27.226562 24 30.863281v17.136719h16v-17.136719c15.585938-4.011719 25.753906-18.992187 23.722656-34.957031-2.035156-15.96875-15.628906-27.925781-31.722656-27.90625-8.835938 0-16-7.164062-16-16s7.164062-16 16-16 16 7.164062 16 16h16c-.054688-14.546875-9.914062-27.226562-24-30.863281v-17.136719h-16v17.136719c-15.585938 4.011719-25.75 18.992187-23.71875 34.957031 2.03125 15.96875 15.625 27.925781 31.71875 27.90625 8.835938 0 16 7.164062 16 16s-7.164062 16-16 16zm0 0"/><path d="m188.800781 369.601562c-2.425781-1.820312-5.667969-2.113281-8.378906-.757812s-4.421875 4.125-4.421875 7.15625v10.6875c-61.5625-16.808594-106.078125-70.273438-111.457031-133.859375-5.378907-63.589844 29.523437-123.769531 87.386719-150.683594 2.117187-.984375 3.699218-2.84375 4.332031-5.09375.632812-2.246093.25-4.660156-1.046875-6.601562l-26.878906-40.320313c-2.25-3.375-6.671876-4.53125-10.289063-2.6875-72.574219 36.71875-118.25 111.222656-118.046875 192.558594.558594 103.667969 74.230469 192.523438 176 212.273438v19.726562c0 3.03125 1.710938 5.800781 4.421875 7.15625s5.953125 1.0625 8.378906-.757812l64-48c2.015625-1.507813 3.199219-3.878907 3.199219-6.398438s-1.183594-4.890625-3.199219-6.398438zm3.199219 86.398438v-10.480469c0-3.945312-2.882812-7.304687-6.785156-7.902343-97.128906-15.644532-168.707032-99.234376-169.214844-197.617188-.191406-72.765625 39.3125-139.847656 103.039062-174.976562l17.832032 26.761718c-62.511719 33.339844-97.394532 102.316406-87.191406 172.429688 10.203124 70.109375 63.296874 126.285156 132.722656 140.425781 2.351562.457031 4.789062-.144531 6.65625-1.648437 1.859375-1.519532 2.941406-3.789063 2.941406-6.191407v-4.800781l42.664062 32zm0 0"/><path d="m256 27.726562v-19.726562c0-3.03125-1.710938-5.800781-4.421875-7.15625s-5.953125-1.0625-8.378906.757812l-64 48c-2.011719 1.507813-3.199219 3.878907-3.199219 6.398438s1.1875 4.890625 3.199219 6.398438l64 48c2.425781 1.820312 5.667969 2.113281 8.378906.757812s4.421875-4.125 4.421875-7.15625v-10.6875c62.222656 16.945312 106.976562 71.3125 111.65625 135.632812 4.675781 64.316407-31.742188 124.585938-90.855469 150.359376-2.152343.933593-3.785156 2.769531-4.464843 5.015624-.679688 2.242188-.339844 4.675782.929687 6.648438l26.238281 40.800781c1.472656 2.289063 4.011719 3.671875 6.738282 3.671875 1.199218-.007812 2.382812-.28125 3.460937-.800781 84.101563-40.46875 132.699219-130.375 120.488281-222.902344-12.210937-92.527343-82.472656-166.746093-174.191406-184.011719zm53.082031 389.335938-17.410156-27.0625c63.902344-32.207031 100.390625-101.359375 90.90625-172.289062-9.484375-70.929688-62.859375-128.0625-132.976563-142.351563-2.355468-.480469-4.800781.121094-6.660156 1.644531-1.863281 1.519532-2.941406 3.792969-2.941406 6.195313v4.800781l-42.664062-32 42.664062-32v10.480469c.003906 3.945312 2.882812 7.304687 6.785156 7.902343 97.132813 15.644532 168.707032 99.234376 169.214844 197.617188.367188 74.398438-40.90625 142.75-106.917969 177.0625zm0 0"/></svg>