<svg height="496pt" viewBox="0 0 496 496" width="496pt" xmlns="http://www.w3.org/2000/svg"><path d="m409.199219 408.398438h-263.597657c-7.203124 0-12.800781-6-12.800781-12.796876v-174.800781c0-7.199219 6-12.800781 12.800781-12.800781h263.597657c7.199219 0 12.800781 6 12.800781 12.800781v174.398438c0 7.199219-5.601562 13.199219-12.800781 13.199219zm-260.398438-16h257.597657v-168.398438h-257.597657zm0 0"/><path d="m224.398438 269.199219h20.800781v-10.398438h-20.800781v-9.601562h23.203124v-10.398438h-36v51.597657h12.796876zm0 0"/><path d="m258 284.398438c2.398438 2.402343 5.199219 4 8.800781 5.203124 3.199219 1.199219 6.800781 1.597657 10.398438 1.597657 3.601562 0 7.199219-.398438 10.402343-1.597657 3.199219-1.203124 6-2.800781 8.796876-5.203124 2.402343-2.398438 4.402343-5.199219 5.601562-8.398438s2-7.199219 2-11.601562c0-4.398438-.800781-8.398438-2-11.597657-1.601562-3.199219-3.199219-6-6-8.402343-2.398438-2.398438-5.199219-4-8.800781-5.199219-6.398438-2.398438-14-2.398438-20.800781 0-3.199219 1.199219-6 2.800781-8.796876 5.199219-2.402343 2.402343-4.402343 5.203124-6 8.402343-1.601562 3.199219-2 7.199219-2 11.597657 0 4.402343.796876 8.402343 2 11.601562 2 3.601562 4 6.398438 6.398438 8.398438zm5.199219-20c0-2.398438.402343-4.796876.800781-6.796876.800781-2 1.601562-3.601562 2.800781-5.203124 1.199219-1.199219 2.398438-2.398438 4.398438-3.199219 1.601562-.800781 3.601562-1.199219 5.601562-1.199219s4 .398438 5.597657 1.199219c1.601562.800781 3.203124 1.601562 4.402343 3.199219 1.199219 1.203124 2 3.203124 2.800781 4.800781.796876 2 .796876 4.402343.796876 6.800781s-.398438 4.800781-.796876 6.800781c-.800781 2-1.601562 3.597657-2.800781 4.800781-1.199219 1.199219-2.800781 2.398438-4.402343 3.199219-3.199219 1.597657-8 1.597657-11.597657 0-1.601562-.800781-3.199219-1.601562-4.402343-3.199219-1.199219-1.203124-2-3.203124-2.796876-4.800781 0-1.601562-.402343-3.601562-.402343-6.402343zm0 0"/><path d="m329.199219 272c.800781.800781 1.601562 2 2.402343 3.199219 1.199219 1.601562 2.398438 2.800781 3.199219 4.402343 1.199219 1.597657 2.398438 3.199219 3.199219 4.796876 1.199219 1.601562 2 3.203124 3.199219 5.203124l.402343.796876h14.398438l-1.199219-2.398438c-.800781-2-2-3.601562-3.199219-5.601562-1.203124-2-2.402343-3.597657-3.601562-5.597657s-2.398438-3.601562-3.601562-5.199219c-.796876-.800781-1.199219-1.601562-2-2.402343 6.402343-2.800781 9.601562-7.597657 9.601562-14 0-5.597657-2.398438-10-6.800781-13.199219-4.398438-2.800781-10.398438-4-18.398438-4-2 0-4.402343 0-7.199219.398438-2.800781 0-5.203124.402343-7.601562.800781l-1.199219.402343v50.796876h12.800781v-18.398438h4.398438zm6.800781-11.601562c-.800781.402343-2.398438.800781-4 1.203124-1.601562.398438-3.601562.398438-6 .398438h-2.398438v-12.800781c2.398438 0 6-.398438 8.796876.402343 1.203124.398438 2.402343.398438 3.601562 1.199219.800781.398438 1.601562 1.199219 2 2s.800781 2 .800781 3.199219-.402343 2.398438-.800781 3.199219c-.398438 0-1.199219.800781-2 1.199219zm0 0"/><path d="m228.398438 353.601562c-.796876-2-2-3.203124-3.597657-4.800781-1.601562-1.199219-3.199219-2.402343-5.199219-3.199219-2-.800781-4.402343-1.601562-6.800781-2.800781-1.199219-.402343-2.800781-.800781-3.601562-1.601562-1.199219-.398438-2-.800781-2.800781-1.597657-.796876-.402343-1.199219-1.203124-1.597657-1.601562-.402343-.398438-.402343-1.199219-.402343-2 0-1.199219.402343-2 1.601562-2.800781s2.800781-1.199219 4.800781-1.199219 4 .398438 6 .800781c2 .398438 3.597657 1.199219 5.199219 2l1.601562.800781 4-10-1.203124-.800781c-1.597657-.800781-3.597657-1.601562-6.398438-2.402343-2.800781-.796876-5.601562-1.199219-9.199219-1.199219-6 0-10.800781 1.199219-14.402343 4-3.597657 2.800781-5.597657 6.800781-5.597657 11.601562 0 2.398438.398438 4.398438 1.199219 6 .800781 1.597657 2 3.199219 3.601562 4.398438 1.597657 1.199219 3.199219 2 4.796876 2.800781 1.601562.800781 3.601562 1.601562 5.601562 2 1.601562.398438 3.199219 1.199219 4.800781 1.601562 1.199219.398438 2.398438 1.199219 3.199219 1.597657.800781.402343 1.601562 1.199219 2 2 .398438.402343.398438 1.199219.398438 2.402343 0 1.597657-.398438 2.398438-1.597657 3.199219s-3.601562 1.199219-6.402343 1.199219c-3.199219 0-5.597657-.398438-8-.800781-2-.800781-4-1.199219-5.199219-2l-1.597657-.800781-4 10 1.199219.800781c.800781.402343 1.597657.800781 2.398438 1.199219 1.199219.402343 2.402343.800781 3.601562 1.203124 1.597657.398438 3.199219.796876 4.800781.796876 2 .402343 4 .402343 6 .402343 6.796876 0 12-1.199219 15.597657-4 3.601562-2.800781 5.601562-6.402343 5.601562-11.601562.800781-1.597657.398438-3.597657-.402343-5.597657zm0 0"/><path d="m277.199219 358c-1.597657-4.398438-3.597657-8.398438-5.199219-12.398438s-3.199219-7.601562-5.199219-11.203124c-1.601562-3.597657-3.199219-7.199219-5.199219-10.398438l-.402343-.800781h-11.199219l-.398438.800781c-1.601562 3.601562-3.601562 7.199219-5.203124 10.398438-1.597657 3.601562-3.199219 7.203124-5.199219 11.203124-1.597657 4-3.199219 8-5.199219 12.398438-1.601562 4.398438-3.601562 9.199219-5.601562 14.398438l-.398438 2h13.601562l.398438-1.199219c.800781-2 1.601562-3.597657 2-5.597657.398438-1.601562 1.199219-3.203124 1.601562-4.800781h19.597657c.402343 1.597657 1.199219 3.199219 2 4.800781.800781 2 1.601562 3.597657 2 5.597657l.402343 1.199219h14l-.800781-2c-2-5.199219-4-10-5.601562-14.398438zm-21.597657-20.398438c.796876 1.597657 1.597657 3.597657 2.398438 5.597657 1.199219 2.800781 2.398438 6 4 9.601562h-12.398438c1.199219-3.199219 2.398438-6.402343 4-9.601562.398438-2 1.199219-3.597657 2-5.597657zm0 0"/><path d="m298.800781 322.800781h-12.800781v51.597657h36.398438v-10.796876h-23.597657zm0 0"/><path d="m339.199219 364v-11.199219h21.199219v-10.402343h-21.199219v-8.796876h24v-10.800781h-36.800781v51.597657h38.402343v-10.398438zm0 0"/><path d="m444.800781 158.800781h-368c-4.402343 0-8-3.601562-8-8 0-4.402343 3.597657-8 8-8h367.597657l34-24-34-24h-367.597657c-4.402343 0-8-3.601562-8-8 0-4.402343 3.597657-8 8-8h368c3.199219 0 6 .800781 8.800781 2.800781l36.398438 26c3.601562 2.796876 6 6.796876 6 11.597657 0 4.402343-2.398438 8.800781-6 11.601562l-36.398438 26c-2.800781.800781-5.601562 2-8.800781 2zm0 0"/><path d="m70.398438 496h-55.597657c-8 0-14.800781-6.398438-14.800781-14.398438v-433.203124c0-3.199219 1.199219-6.398438 3.199219-8.796876l27.601562-34c2.800781-3.601562 7.199219-5.601562 11.597657-5.601562 4.402343 0 8.800781 2 11.601562 5.601562l27.601562 34c2 2.398438 3.199219 5.597657 3.199219 8.796876v433.601562c0 7.601562-6.402343 14-14.402343 14zm-54.398438-16h52.800781v-431.199219l-26.402343-32.402343-26.398438 32.402343zm0 0"/><path d="m207.601562 224c-4.402343 0-8-3.601562-8-8v-64.398438c0-4.402343 3.597657-8 8-8 4.398438 0 8 3.597657 8 8v64.398438c0 4.398438-3.601562 8-8 8zm0 0"/><path d="m360.398438 224c-4.398438 0-8-3.601562-8-8v-64.398438c0-4.402343 3.601562-8 8-8 4.402343 0 8 3.597657 8 8v64.398438c0 4.398438-3.597657 8-8 8zm0 0"/></svg>