<svg width="589" height="102" viewBox="0 0 589 102" fill="none" xmlns="http://www.w3.org/2000/svg">
<path d="M10.77 101.44L5.79999 89.22H8.91999L12.12 97.74L15.56 89.22H17.61L21.03 97.74L24.18 89.22H26.88L21.97 101.44H19.94L16.4 92.8L12.82 101.44H10.77Z" fill="white"/>
<path d="M38.96 101.44V89.22H52.07V91.38H41.97V94.05H47.86V96.15H41.97V99.16H52.23V101.45H38.96V101.44Z" fill="white"/>
<path d="M65.2 101.44V89.22H76.18C77.21 89.22 77.94 89.41 78.4 89.78C78.85 90.15 79.08 90.76 79.08 91.59V93.06C79.08 93.61 78.9 94.07 78.54 94.43C78.18 94.79 77.66 95.03 76.99 95.15C77.68 95.26 78.21 95.52 78.59 95.93C78.97 96.34 79.16 96.85 79.16 97.48V99.05C79.16 99.85 78.84 100.45 78.21 100.85C77.58 101.25 76.63 101.45 75.36 101.45H65.2V101.44ZM74.81 91.21H68.13V94.1H74.81C75.33 94.1 75.68 94.03 75.87 93.9C76.06 93.77 76.15 93.54 76.15 93.22V92.06C76.15 91.74 76.06 91.52 75.88 91.39C75.7 91.27 75.34 91.21 74.81 91.21ZM74.81 96.12H68.13V99.24H74.81C75.38 99.24 75.76 99.16 75.96 99C76.16 98.84 76.26 98.56 76.26 98.15V97.22C76.26 96.81 76.16 96.53 75.96 96.37C75.76 96.2 75.38 96.12 74.81 96.12Z" fill="white"/>
<path d="M124.02 91.41H115.61V93.99H123.57C124.82 93.99 125.66 94.19 126.1 94.59C126.53 94.99 126.75 95.75 126.75 96.87V98.55C126.75 99.67 126.53 100.43 126.09 100.84C125.65 101.25 124.81 101.45 123.58 101.45H115.65C114.39 101.45 113.54 101.25 113.09 100.84C112.64 100.44 112.42 99.67 112.42 98.55V98.21L115.07 97.72V99.16H124.06V96.37H116.14C114.89 96.37 114.04 96.16 113.6 95.76C113.16 95.35 112.94 94.59 112.94 93.48V92.1C112.94 91 113.16 90.24 113.6 89.84C114.04 89.43 114.89 89.23 116.14 89.23H123.39C124.62 89.23 125.47 89.43 125.92 89.81C126.38 90.2 126.6 90.89 126.6 91.88V92.18L124.02 92.73V91.41Z" fill="white"/>
<path d="M140.27 92.1C140.27 90.99 140.49 90.23 140.92 89.83C141.35 89.43 142.19 89.22 143.45 89.22H152.91C154.17 89.22 155.01 89.42 155.44 89.83C155.87 90.23 156.08 90.99 156.08 92.1V98.55C156.08 99.67 155.86 100.43 155.42 100.84C154.98 101.25 154.14 101.45 152.9 101.45H143.44C142.19 101.45 141.35 101.25 140.91 100.84C140.48 100.44 140.26 99.67 140.26 98.55V92.1H140.27ZM143.25 99.1H153.1V91.46H143.25V99.1Z" fill="white"/>
<path d="M169.9 101.44V89.22H182.87V91.41H172.91V94.6H178.27V96.87H172.91V101.44H169.9Z" fill="white"/>
<path d="M202.29 91.41V101.44H199.31V91.41H193.41V89.22H208.2V91.41H202.29Z" fill="white"/>
<path d="M224.01 101.44L219.04 89.22H222.16L225.36 97.74L228.8 89.22H230.85L234.27 97.74L237.42 89.22H240.12L235.21 101.44H233.18L229.65 92.8L226.07 101.44H224.01Z" fill="white"/>
<path d="M250.34 101.44L257.59 89.22H260.46L267.83 101.44H264.48L262.94 98.76H254.85L253.31 101.44H250.34ZM256.13 96.53H261.73L258.88 91.44L256.13 96.53Z" fill="white"/>
<path d="M279.55 101.44V89.22H290.56C291.57 89.22 292.3 89.41 292.75 89.78C293.2 90.15 293.43 90.76 293.43 91.59V94.47C293.43 95.3 293.2 95.9 292.75 96.26C292.3 96.63 291.57 96.81 290.56 96.81H288.88L294.69 101.44H290.41L285.29 96.81H282.48V101.44H279.55ZM289.28 91.32H282.48V94.71H289.28C289.8 94.71 290.15 94.63 290.35 94.48C290.54 94.33 290.64 94.08 290.64 93.72V92.31C290.64 91.95 290.54 91.7 290.35 91.55C290.16 91.4 289.8 91.32 289.28 91.32Z" fill="white"/>
<path d="M307 101.44V89.22H320.11V91.38H310.01V94.05H315.89V96.15H310.01V99.16H320.27V101.45H307V101.44Z" fill="white"/>
<path d="M364.4 91.41H355.99V93.99H363.95C365.2 93.99 366.04 94.19 366.48 94.59C366.91 94.99 367.13 95.75 367.13 96.87V98.55C367.13 99.67 366.91 100.43 366.47 100.84C366.03 101.25 365.19 101.45 363.96 101.45H356.03C354.77 101.45 353.92 101.25 353.47 100.84C353.02 100.44 352.8 99.67 352.8 98.55V98.21L355.45 97.72V99.16H364.44V96.37H356.52C355.27 96.37 354.42 96.16 353.98 95.76C353.54 95.35 353.32 94.59 353.32 93.48V92.1C353.32 91 353.54 90.24 353.98 89.84C354.42 89.43 355.27 89.23 356.52 89.23H363.77C365 89.23 365.85 89.43 366.3 89.81C366.76 90.2 366.98 90.89 366.98 91.88V92.18L364.4 92.73V91.41Z" fill="white"/>
<path d="M380.65 92.1C380.65 90.99 380.87 90.23 381.3 89.83C381.73 89.43 382.57 89.22 383.83 89.22H393.29C394.55 89.22 395.4 89.42 395.82 89.83C396.25 90.23 396.46 90.99 396.46 92.1V98.55C396.46 99.67 396.24 100.43 395.8 100.84C395.36 101.25 394.52 101.45 393.28 101.45H383.82C382.57 101.45 381.73 101.25 381.29 100.84C380.86 100.44 380.64 99.67 380.64 98.55V92.1H380.65ZM383.63 99.1H393.48V91.46H383.63V99.1Z" fill="white"/>
<path d="M410.28 101.44V89.22H413.29V99.16H422.87V101.45H410.28V101.44Z" fill="white"/>
<path d="M438.4 89.22V99.16H446.91V89.22H449.92V98.55C449.92 99.66 449.7 100.42 449.25 100.83C448.8 101.24 447.95 101.44 446.7 101.44H438.61C437.37 101.44 436.53 101.24 436.09 100.83C435.65 100.43 435.43 99.66 435.43 98.54V89.21H438.4V89.22Z" fill="white"/>
<path d="M471.3 91.41V101.44H468.32V91.41H462.42V89.22H477.21V91.41H471.3Z" fill="white"/>
<path d="M489.74 101.44V89.22H492.7V101.44H489.74Z" fill="white"/>
<path d="M506.53 92.1C506.53 90.99 506.75 90.23 507.18 89.83C507.61 89.43 508.45 89.22 509.71 89.22H519.17C520.43 89.22 521.28 89.42 521.7 89.83C522.13 90.23 522.34 90.99 522.34 92.1V98.55C522.34 99.67 522.12 100.43 521.68 100.84C521.24 101.25 520.4 101.45 519.16 101.45H509.7C508.45 101.45 507.61 101.25 507.17 100.84C506.74 100.44 506.52 99.67 506.52 98.55V92.1H506.53ZM509.5 99.1H519.35V91.46H509.5V99.1Z" fill="white"/>
<path d="M536.16 101.44V89.22H538.21L548.58 97.34V89.22H551.28V101.44H549.22L538.87 93.2V101.44H536.16Z" fill="white"/>
<path d="M576.7 91.41H568.29V93.99H576.25C577.5 93.99 578.34 94.19 578.78 94.59C579.21 94.99 579.43 95.75 579.43 96.87V98.55C579.43 99.67 579.21 100.43 578.77 100.84C578.33 101.25 577.49 101.45 576.26 101.45H568.33C567.07 101.45 566.22 101.25 565.77 100.84C565.32 100.44 565.1 99.67 565.1 98.55V98.21L567.75 97.72V99.16H576.74V96.37H568.82C567.57 96.37 566.72 96.16 566.28 95.76C565.84 95.35 565.62 94.59 565.62 93.48V92.1C565.62 91 565.84 90.24 566.28 89.84C566.72 89.43 567.57 89.23 568.82 89.23H576.07C577.3 89.23 578.15 89.43 578.6 89.81C579.06 90.2 579.28 90.89 579.28 91.88V92.18L576.7 92.73V91.41Z" fill="white"/>
<path d="M0 66.51V23.38H10.04V40.11H41.38V23.38H51.5V66.52H41.38V47.95H10.04V66.52H0V66.51Z" fill="white"/>
<path d="M73.54 66.51V23.38H101.29C109.21 23.38 115.29 25.23 119.55 28.93C123.81 32.63 125.94 37.88 125.94 44.68C125.94 48.71 125.11 52.33 123.45 55.56C121.79 58.78 119.45 61.32 116.43 63.17C114.55 64.34 112.22 65.19 109.43 65.72C106.64 66.25 103.07 66.51 98.72 66.51H73.54ZM83.58 58.39H96.56C103.47 58.39 108.37 57.32 111.25 55.17C114.13 53.02 115.58 49.47 115.58 44.52C115.58 40.11 114.38 36.77 111.99 34.5C109.6 32.23 106.06 31.09 101.38 31.09H83.58V58.39Z" fill="white"/>
<path d="M153.2 66.51L136.59 23.37H146.95L157.89 52.3L169.36 23.37H176.38L188.05 52.3L198.5 23.37H207.48L190.83 66.51H184.06L172.18 36.68L160.14 66.51H153.2Z" fill="white"/>
<path d="M221.72 66.51V23.38H265.88V30.73H231.76V40.36H251.67V47.71H231.76V58.4H266.28V66.52H221.72V66.51Z" fill="white"/>
<path d="M284.81 66.51V23.38H321.78C325.18 23.38 327.64 24.05 329.17 25.38C330.69 26.71 331.46 28.84 331.46 31.75V37.01C331.46 39.08 330.82 40.73 329.54 41.97C328.26 43.21 326.43 43.98 324.03 44.28C326.51 44.61 328.42 45.49 329.76 46.93C331.11 48.37 331.78 50.25 331.78 52.56V58.07C331.78 60.93 330.73 63.05 328.64 64.44C326.54 65.83 323.36 66.52 319.09 66.52H284.81V66.51ZM317.58 30.4H294.69V40.68H317.58C319.32 40.68 320.53 40.45 321.19 39.99C321.86 39.53 322.19 38.73 322.19 37.58V33.5C322.19 32.38 321.86 31.59 321.19 31.11C320.52 30.64 319.32 30.4 317.58 30.4ZM317.58 47.78H294.69V58.76H317.58C319.48 58.76 320.77 58.47 321.44 57.9C322.11 57.33 322.44 56.32 322.44 54.88V51.62C322.44 50.18 322.11 49.18 321.44 48.62C320.76 48.06 319.48 47.78 317.58 47.78Z" fill="white"/>
<path d="M388.54 30.93H360.3V40.19H387.19C391.41 40.19 394.26 40.91 395.74 42.35C397.22 43.79 397.96 46.47 397.96 50.39V56.31C397.96 60.23 397.22 62.91 395.74 64.35C394.26 65.79 391.41 66.51 387.19 66.51H360.54C356.32 66.51 353.47 65.79 351.99 64.35C350.51 62.91 349.77 60.23 349.77 56.31V55.13L358.63 53.29V58.39H389.11V48.56H362.22C358.03 48.56 355.2 47.84 353.73 46.4C352.26 44.96 351.53 42.28 351.53 38.36V33.59C351.53 29.67 352.26 26.99 353.73 25.55C355.2 24.11 358.03 23.39 362.22 23.39H386.7C390.75 23.39 393.55 24.08 395.09 25.47C396.63 26.86 397.4 29.32 397.4 32.86V33.76L388.54 35.84V30.93Z" fill="white"/>
<path d="M492.16 66.51V23.38H535.78V30.93H502.2V42.28H520.36V50.16H502.2V66.52H492.16V66.51Z" fill="white"/>
<path d="M568.31 31.09V66.51H558.27V31.09H538.48V23.38H588.19V31.09H568.31Z" fill="white"/>
<path d="M430.72 78.1C430.94 78.19 431.17 78.27 431.4 78.36C431.41 78.36 431.41 78.36 431.42 78.37" fill="white"/>
<path d="M431.48 78.39C431.5 78.4 431.52 78.4 431.54 78.41L431.48 78.39Z" fill="white"/>
<path d="M445.52 0C430.61 0 417.6 8.05 410.55 20.03C412.33 17.01 414.55 14.27 417.11 11.9C417.06 12.04 416.91 12.25 416.87 12.41C416.84 12.53 417.06 12.39 417.1 12.5C417.1 12.58 416.89 12.69 416.89 12.76C416.87 12.83 416.23 13.23 416.32 13.24C416.36 13.25 416.02 13.6 416.21 13.52C416.34 13.43 416.7 13.27 416.94 13.06C417.1 12.95 417.26 12.78 417.27 12.77C417.53 12.68 417.48 12.45 417.57 12.24C417.6 12.22 418.04 12.09 418.38 11.99C418.53 11.95 418.59 12.21 418.65 12.16C418.73 12.16 418.99 12.06 418.8 11.97C418.7 11.91 418.33 11.89 418.32 11.91C418.11 11.9 417.59 12.2 417.43 12.24C417.29 12.27 417.34 12.04 417.36 12.02C417.84 11.67 417.57 11.69 417.51 11.55C417.51 11.54 417.5 11.53 417.5 11.52C417.54 11.5 417.57 11.48 417.6 11.46C417.94 11.27 418.22 11.05 418.4 10.86C418.57 10.95 418.08 11.34 418.24 11.3C418.29 11.29 419.16 11.13 419.29 11.05C419.36 11.01 418.83 11.11 418.86 11.04C418.88 10.96 418.46 11.08 418.53 11.02C418.92 10.87 419.39 10.58 419.67 10.49C420.06 10.38 420.19 10.52 420.41 10.43C420.43 10.39 421.38 10.28 421.36 10.24C421.26 10.16 420.44 10.32 420.44 10.24C420.48 10.15 420.28 10.08 420.47 9.97C421.02 9.68 422.35 9.39 422.74 9.29C422.92 9.24 423.17 9.25 423.29 9.15C423.4 9.04 423.41 8.84 423.53 8.76C424.85 8.07 427.15 7.56 427.72 7.4C427.48 7.76 429.67 7.07 430.05 6.94C430.56 6.74 430.86 6.58 431.78 6.48C432.56 6.39 432.9 6.49 433.03 6.65C433.76 6.55 434.44 6.46 435.17 6.37C435.62 6.37 435.73 6.56 435.93 6.6C435.98 6.6 436.2 6.5 436.24 6.49C436.57 6.62 436.47 6.76 436.35 6.86C435.93 7.17 432.71 7.68 432.29 7.89C432.29 7.89 433.41 7.94 435.29 7.39C435.42 7.46 435.61 7.48 436.2 7.5C436.7 7.52 436.95 7.36 437.56 7.38C437.95 7.38 438.84 7.34 439.23 7.36C439.68 7.45 438.84 7.53 438.95 7.55C439.99 7.6 440.97 7.64 442.01 7.73C442.01 7.6 441.47 7.49 441.59 7.42C441.68 7.38 442.4 7.35 442.6 7.36C443.74 7.42 444.36 7.51 444.61 7.6C444.8 7.69 444.16 7.7 444.16 7.87C444.17 7.98 444.52 8.04 444.75 8.17C445.1 8.36 445.4 8.55 445.88 8.58C446.21 8.59 446.28 8.39 446.35 8.26C447 8.32 447.4 8.48 447.95 8.52C448.92 8.6 448.87 8.51 450.27 8.66C450.36 8.37 450.82 8.19 452.26 8.37C453.69 8.57 453.85 8.62 454.92 8.92C455.43 9.06 455.46 9.24 455.83 9.43C456.24 9.62 458.18 10.02 458.77 10.13C459.85 10.38 460.15 10.55 460.48 10.97C461.66 11.27 462.75 11.56 463.79 11.92C463.9 11.96 465.28 12.86 464.93 12.4C464.85 12.28 465.09 12.33 465.51 12.49C465.92 12.64 466.32 12.83 466.7 13.02C467.42 13.74 468.1 14.5 468.75 15.28C468.54 15.24 468.25 15.15 468.31 15.39C468.39 15.5 469.76 16.33 467.98 15.7C467.05 15.38 466.51 15.97 465.72 15.78C465.56 15.73 465.26 15.53 464.82 15.43C464.64 15.39 464.46 15.49 464.24 15.44C464 15.39 463.77 15.18 463.53 15.22C463.17 15.29 462.85 15.48 462.56 15.9C462.44 16.11 462.91 16 462.94 16.13C462.95 16.23 463.05 16.48 462.94 16.68C462.81 16.89 462.5 17.05 462.51 17.23C462.54 17.47 461.77 17.39 461.9 17.73C461.17 17.73 461 18.33 460.68 18.62C460.14 18.26 459.71 16.83 459.65 16.42C459.59 15.92 460.19 15.79 460.62 15.71C461.14 15.61 461.37 15.29 461.7 15.03C461.96 14.82 462.4 15 462.82 14.92C463.27 14.83 463.07 14.62 463.07 14.44C463.09 14.3 463.33 14.26 463.15 14.2C463.04 14.13 462.75 14.16 462.71 14.15C461.52 15.02 461 14.2 461.23 14.13C460.67 13.98 460.56 14.01 460.27 13.94C459.14 13.75 459.07 14.2 458.89 14.79C458.58 14.73 458.27 14.69 457.95 14.64C457.52 14.56 457.16 14.38 456.44 14.25C455.85 14.18 453.87 13.91 453.13 13.93C452.3 13.97 450.89 14.57 450.3 14.83C449.89 15.02 449.06 15.54 449.05 15.84C449.06 15.9 449.71 16.61 450.88 16.26C451.28 16.16 451.99 17.09 452.02 17.47C452.04 17.77 451.82 18.06 451.71 18.19C451.43 18.54 451.58 18.71 451.47 19.1C451.35 19.48 450.94 19.89 450.61 20.1C449.81 20.65 448.75 22.33 447.53 22.32C446.86 22.29 446.79 21.87 446.79 21.87C446.28 22.14 445.41 22.73 445.12 23.15C445.02 23.27 444.61 23.43 444.49 23.52C444.32 23.63 444.1 23.73 443.84 23.74C443.8 24 444.02 24.1 444.21 24.29C444.7 24.64 445.01 25.27 445.01 26.05C445.01 26.53 444.89 26.72 444.57 26.81C444.44 26.84 443.89 26.9 443.89 27.04C443.62 27.1 443.55 27.12 443.45 27.22C443.37 27.22 443.2 27.21 443.12 27.21C443.12 27.13 443.23 27.02 443.25 26.95C443.17 26.94 443.14 26.81 443.14 26.75C443.15 26.6 443.34 26.33 443.34 26.29C443.34 26.2 443.23 26.04 443.23 25.94C443.13 25.92 443.04 25.83 443.01 25.8C443.01 25.75 443.01 25.65 443.01 25.6C443.19 25.61 443.36 25.45 443.36 25.35C443.35 25.11 443.04 24.75 442.77 24.74C442.61 24.74 442.51 24.82 442.46 24.81C442.3 24.81 442.25 24.6 442.24 24.54C442.25 24.34 442.48 24.34 442.48 24.22C442.47 24.04 442.39 23.99 442.48 23.88C442.15 23.85 442.05 23.71 441.79 23.7C441.08 23.7 440.75 24.19 440.12 24.2C440.14 23.91 440.54 23.81 440.55 23.57C440.55 23.5 440.27 23.29 440.14 23.28C439.91 23.28 439.82 23.44 439.78 23.48C439.59 23.67 439.09 23.9 438.82 24.05C438.5 24.2 437.89 24.11 437.86 24.42C437.87 24.59 438.25 24.64 438.32 24.68C438.58 24.84 438.48 25.2 438.75 25.4C438.93 25.5 439.19 25.44 439.33 25.44C439.43 25.43 439.52 24.81 439.65 24.79C439.9 24.81 440.02 25.18 440.13 25.24C440.45 25.42 440.76 25.22 440.95 25.43C440.48 25.83 439.8 25.38 439.58 25.93C439.48 26.17 438.92 26.26 438.91 26.51C438.91 26.78 439.37 26.99 439.5 27.02C439.5 27.13 439.51 27.31 439.51 27.41C439.52 27.42 439.54 27.41 439.55 27.41C439.54 27.41 439.53 27.43 439.53 27.43C439.73 27.55 439.74 27.81 439.79 27.88C440.19 28.45 440.41 28.51 440.39 29.4C440.37 30.02 440.04 30.2 440.03 30.67C439.69 30.75 439.08 31.59 438.93 31.81C438.72 32.23 438.56 32.98 438.01 32.98C437.96 33.2 437.8 33.3 437.67 33.36C437.03 33.71 436.7 34.29 435.63 34.28C435.42 34.29 435.63 34.39 435.39 34.38C435.36 34.39 435.11 34.78 435.11 34.78C434.81 35.02 434.26 34.84 433.83 35.02C433.65 35.1 433.21 35.16 433.05 35.31C432.87 35.48 433.13 35.8 432.87 35.8C432.67 35.78 432.21 34.95 432.22 34.87C431.83 34.68 431.84 34.92 431.46 34.74C431.01 35.43 430.01 35.57 429.98 36.54C429.98 36.75 430.11 36.8 430.16 36.88C430.64 37.41 430.84 37.97 431.36 38.34C431.89 38.72 432.24 39.53 432.24 40.27C432.24 40.79 431.97 40.98 431.98 41.38C431.29 41.56 431.22 41.79 430.69 42.07C430.43 42.21 430.5 42.55 430.23 42.55C430.2 42.55 430.18 42.48 430.18 42.42C430.18 42.48 430.18 42.55 430.17 42.6C430.17 42.82 429.73 43.13 429.67 43.14C429.61 43.13 429.49 42.79 429.5 42.7C429.5 42.52 429.52 42.43 429.58 42.39C429.52 42.36 429.44 42.14 429.43 42.06C429.12 42.05 428.73 41.94 428.71 41.6C428.26 41.58 428.47 41.27 428.24 40.99C427.95 40.67 427.69 40.65 427.34 40.53C427.31 40.51 427.24 40.24 427.24 40.24C427.18 39.99 426.94 39.95 426.72 39.94C426.55 39.94 426.58 40.1 426.6 40.18C426.59 40.38 426.38 40.67 426.38 40.81C426.36 41.48 426.06 41.69 426.03 42.26C426.04 42.91 426.65 42.7 426.64 43.32C426.64 43.31 426.61 43.31 426.6 43.32C426.68 43.47 426.72 43.84 426.86 43.99C427.44 44.56 428.68 44.71 428.69 45.75C428.69 45.96 428.61 46 428.61 46.14C428.62 46.52 428.93 46.64 429.03 46.89C429.13 47.16 429.13 47.25 429.23 47.49C429.16 47.48 429.03 47.51 428.96 47.5C428.91 47.51 428.86 47.58 428.81 47.58C428.59 47.57 428.55 47.41 428.45 47.38C427.79 47.13 427.2 46.53 426.95 45.84C426.75 45.24 426.7 44.83 426.47 44.34C426.31 44.05 426.18 43.32 425.84 43.29C425.64 43.28 425.77 43.41 425.57 43.28C425.54 43.28 425.58 43.19 425.57 43.16C425.56 42.87 425.72 42.63 425.77 42.33C425.78 42.33 425.8 42.33 425.81 42.33C425.82 42.33 425.86 42.34 425.87 42.33C425.71 42.23 425.87 41.78 425.87 41.55C425.84 40.63 425.45 39.68 425.44 39.01C425.17 38.99 425.54 38.41 425.33 38.08C425.29 38 425.1 38 425.06 37.97C424.95 37.84 424.98 37.73 424.88 37.64C424.53 37.99 424.31 38.52 423.75 38.53C423.43 38.52 423.5 38.33 423.5 38.06C423.5 37.79 423.6 37.68 423.61 37.45C423.61 37.37 423.52 37.26 423.49 37.18C423.36 36.74 423.23 36.71 423.02 36.35C422.75 36.11 422.54 35.94 422.39 35.65C422.25 35.38 422.29 35.05 422.22 34.78C422.15 34.48 421.82 34.35 421.54 34.29C421.5 34.94 420.98 35.06 420.49 35.07C420.19 35.07 420.2 34.97 420.05 34.86C419.91 35.18 419.52 34.95 419.46 35.14C419.37 35.44 419.41 35.67 419.22 35.87C418.88 36.26 418.36 36.36 418.06 36.7C417.68 37.13 417.38 37.53 417.04 37.94C416.91 38.11 416.7 38.37 416.59 38.39C416.3 38.51 415.95 38.42 415.93 38.82C415.94 39.18 416.02 39.62 416.05 39.93C416.03 40.42 415.87 40.72 415.86 41.09C415.9 41.27 415.93 41.46 415.95 41.59C415.92 41.59 415.89 41.6 415.87 41.61C415.86 41.66 415.76 41.67 415.71 41.68C415.49 41.76 415.54 42.25 415.41 42.32C415.21 42.42 415.18 42.34 415.11 42.53C415.04 42.68 415.04 42.91 414.91 42.9C414.78 42.91 414.68 42.8 414.66 42.69C414.58 42.69 414.54 42.53 414.51 42.49C414.37 42.02 414.19 41.63 414.08 41.24C414.01 40.96 413.8 40.74 413.73 40.62C413.6 40.3 413.69 40.07 413.55 39.84C413.44 39.58 413.42 39.48 413.36 39.23C413.29 38.94 413.15 38.37 413.06 37.95C412.96 37.57 412.83 37.23 412.82 36.86C412.82 36.81 412.8 36.64 412.8 36.59C412.8 36.59 412.82 36.6 412.81 36.6C412.82 36.35 412.88 36.29 412.9 36.07C412.9 35.76 412.78 35.55 412.78 35.3C412.79 35.25 412.87 35.1 412.88 35.04C412.84 35.04 412.8 35.05 412.76 35.04C412.55 35.3 412.49 35.73 412.12 35.74C411.67 35.74 411.53 35.17 411.34 34.91C411.47 34.79 411.56 34.91 411.69 34.83C411.81 34.79 411.81 34.61 411.89 34.55C411.78 34.51 411.7 34.52 411.57 34.52C411.29 34.52 410.94 34.2 410.8 33.92C410.7 33.69 410.66 33.29 410.5 33.22C410.36 33.18 410.3 33.23 410.12 33.23C409.95 33.25 409.85 33.35 409.68 33.35C409.57 33.32 409.51 33.3 409.37 33.25C409.31 33.29 409.29 33.35 409.26 33.38C409.15 33.36 409.13 33.36 409.02 33.34C408.99 33.34 408.99 33.35 408.96 33.34C408.75 33.35 408.26 33.19 407.98 33.22C407.9 33.23 407.65 33.1 407.63 33.1C407.54 32.94 407.58 32.45 407.38 32.46C407.28 32.47 407.25 32.64 407.16 32.74C407.01 32.76 406.97 32.74 406.7 32.8C406.56 32.73 406.52 32.54 406.45 32.38C406.36 32.21 406.21 32.31 406.16 32.16C406.11 32.07 406.17 31.95 406.15 31.88C406.39 30.55 406.69 29.25 407.07 27.97C407.14 27.93 407.22 27.89 407.31 27.83C407.32 27.74 407.33 27.64 407.36 27.55C407.35 27.53 407.41 27.31 407.42 27.2C407.44 27.1 407.47 27 407.48 26.91C407.5 26.82 407.49 26.76 407.48 26.7C407.56 26.48 407.63 26.26 407.71 26.05C407.73 26.04 407.76 26.03 407.79 26.02C407.8 25.96 407.79 25.9 407.78 25.85C408.52 23.85 409.43 21.94 410.49 20.13C406.96 26.14 404.94 33.13 404.94 40.61C404.94 63 423.09 81.15 445.48 81.15C467.87 81.15 486.02 63 486.02 40.61C486.06 18.15 467.91 0 445.52 0ZM425.44 6.49C425.62 6.44 425.82 6.41 426 6.36C426.02 6.38 426.02 6.36 426.03 6.39C425.78 6.44 425.55 6.57 425.44 6.49ZM425.66 6.78C425.7 6.71 426 6.66 426.1 6.64C426.18 6.64 426.58 6.6 426.69 6.58C426.61 6.68 426.13 6.79 425.92 6.84C425.82 6.85 425.66 6.85 425.66 6.78ZM427.44 7.38C427.36 7.4 427.31 7.39 427.29 7.36C427.41 7.33 427.49 7.29 427.55 7.26C427.63 7.24 427.72 7.22 427.8 7.22C427.74 7.31 427.64 7.38 427.44 7.38ZM427.34 6.72C427.14 6.75 426.78 6.69 426.56 6.71C427.1 6.54 427.27 6.46 427.81 6.32C427.64 6.34 427.24 6.42 427.14 6.44C426.69 6.53 426.41 6.54 426.04 6.58C426.72 6.36 427.02 6.11 427.79 5.95C428.25 5.87 428.45 5.92 428.69 5.96C428.53 6 428.56 5.99 428.5 6C428.51 6.1 428.47 6.06 428.47 6.1C428.45 6.14 428.26 6.19 428.13 6.24C428.3 6.21 428.34 6.2 428.47 6.18C428.67 6.14 428.73 6.17 428.94 6.15C429.05 6.13 429.16 6.08 429.27 6.1C429.61 6.03 429.6 6.08 429.79 6.11C429.62 6.19 429.64 6.15 429.63 6.23C429.59 6.3 429.38 6.34 429.28 6.35C429.39 6.34 429.53 6.32 429.51 6.37C429.49 6.44 429.3 6.47 429.15 6.5C428.41 6.62 427.92 6.61 427.34 6.72ZM431.11 6.39C431.05 6.4 430.5 6.49 430.5 6.49C430.19 6.54 429.91 6.63 429.58 6.7C429.38 6.72 429.32 6.73 429.35 6.66C429.4 6.54 429.59 6.55 429.68 6.5C430.1 6.33 430.3 6.11 430.98 6.02C431.05 6 431.13 5.99 431.2 5.99C431.19 6.1 431.26 6.07 431.12 6.11C431.25 6.08 431.33 6.03 431.44 6.02C431.68 5.98 432.37 6.01 432.34 6.12C432.32 6.25 431.4 6.37 431.11 6.39ZM433.23 6.23C433.01 6.25 432.95 6.21 432.89 6.2C433.28 6.15 433.3 6.17 433.47 6.13C433.45 6.18 433.34 6.2 433.23 6.23ZM436.18 7.29C436.16 7.3 436.14 7.3 436.11 7.31C436.12 7.31 436.13 7.31 436.13 7.3C436.02 7.33 435.87 7.35 435.74 7.36C435.53 7.38 435.34 7.38 435.34 7.31C435.37 7.23 435.57 7.2 435.76 7.2C436.03 7.2 436.16 7.17 436.18 7.27C436.16 7.28 436.15 7.31 436.13 7.31C436.15 7.3 436.17 7.29 436.18 7.29ZM448.21 7C448.18 7.04 448.16 7.09 448.04 7.06C447.96 7.06 447.9 7.05 447.89 7C447.9 6.95 447.97 6.97 448.03 6.92C448.07 6.94 448.14 6.95 448.18 6.98C448.19 6.97 448.23 6.98 448.22 6.98C448.22 6.99 448.21 6.99 448.21 7C448.22 7 448.22 7 448.21 7C448.22 7 448.22 7 448.21 7ZM450.46 7.73C450.45 7.62 450.9 7.68 450.95 7.79C450.95 7.85 450.8 7.85 450.69 7.84C450.49 7.8 450.47 7.8 450.46 7.73ZM451.72 8.2C451.38 8.1 450.97 8.06 450.63 7.98C450.6 7.99 450.57 7.99 450.55 8C450.76 7.93 450.99 7.84 451.39 7.91C451.87 7.97 452.23 8.12 452.27 8.26C452.07 8.23 451.91 8.23 451.72 8.2ZM452.5 7.67C452.34 7.63 452.17 7.63 452.03 7.61C451.89 7.58 451.82 7.63 451.6 7.61C451.47 7.6 451.38 7.55 451.27 7.51C451.12 7.5 451.05 7.53 450.92 7.51C450.83 7.5 450.7 7.54 450.53 7.51C450.37 7.48 450.29 7.44 450.2 7.41C450.08 7.43 450.01 7.46 449.82 7.46C449.35 7.4 448.91 7.26 448.88 7.1C448.87 6.96 449.3 6.9 449.66 6.95C450.23 7.02 450.26 7.18 450.76 7.26C450.74 7.14 450.82 7.1 451.04 7.14C451.36 7.17 452.41 7.44 452.79 7.53C452.71 7.61 452.5 7.61 452.5 7.67ZM455.07 8.18C454.62 8.1 453.81 7.92 453.78 7.75C453.72 7.73 453.65 7.7 453.6 7.68C453.77 7.74 455.56 8.13 455.63 8.14C455.73 8.15 455.8 8.19 455.81 8.23C455.81 8.32 455.34 8.22 455.07 8.18ZM464.17 11.98C463.98 11.92 463.8 11.81 463.71 11.71C463.87 11.76 464.01 11.79 464.17 11.86C464.2 11.88 464.25 11.93 464.29 11.96C464.3 12 464.25 12.01 464.17 11.98ZM405.77 41.32C405.74 40.93 405.71 40.54 405.69 40.15C405.72 40.13 405.74 40.12 405.77 40.11C405.79 40.22 405.82 40.27 405.83 40.36C405.83 40.65 405.8 40.99 405.77 41.32ZM406.45 39.94C406.41 39.91 406.38 39.89 406.35 39.8C406.45 39.75 406.39 39.73 406.61 39.72C406.58 39.79 406.58 39.93 406.45 39.94ZM407.79 35.82C407.64 35.83 407.54 35.91 407.48 36.1C407.44 36.32 407.51 36.61 407.31 36.6C407.16 36.61 407.19 37.08 407.01 37.1C406.86 37.1 406.74 37.39 406.74 37.59C406.49 37.67 406.01 37.74 406.01 38.09C406.01 38.14 406.02 38.2 406.04 38.24C405.89 38.38 405.76 38.47 405.62 38.55C405.62 38.27 405.62 38 405.62 37.72C405.64 36.25 405.74 34.8 405.93 33.38C406 33.31 405.95 33.15 406.09 33.08C406.08 33.14 406.09 33.2 406.08 33.26C406.07 33.45 406.01 33.6 405.98 33.78C405.97 34.01 406.05 34.1 406.29 34.09C406.87 34.01 406.98 33.36 407.36 32.85C407.34 33.06 407.32 33.25 407.31 33.47C407.41 33.95 407.58 34 407.89 34.15C408 34.19 407.98 34.45 408.07 34.55V34.53C408.12 34.68 408.28 34.66 408.26 34.79C408.24 35.22 407.83 35.41 407.79 35.82ZM416.42 44.18C416.15 44.16 415.94 43.86 415.94 43.54C415.92 42.91 416.15 42.46 416.15 41.79C416.43 42.33 416.97 42.61 416.98 43.32C416.99 43.72 416.75 44.2 416.42 44.18ZM457.11 21C457.16 21.01 457.1 20.91 457.12 20.87C457.15 20.78 457.39 20.8 457.42 20.8C457.4 20.88 457.25 21.1 457.11 21.09C457.08 21.1 457.08 21 457.11 21ZM456.21 21.16C456.31 21.17 456.44 21.18 456.5 21.19C456.51 21.22 456.5 21.27 456.51 21.3C456.05 21.27 456.09 21.58 455.8 21.56C455.8 21.54 455.79 21.5 455.8 21.48C455.8 21.48 455.96 21.15 456.21 21.16ZM455.7 52.3C455.69 52.52 455.33 52.49 455.31 52.63C455.31 52.71 455.62 53.04 455.65 53.08C455.83 53.27 455.77 53.4 455.92 53.62C455.97 53.7 456.22 53.79 456.33 53.79C456.38 53.8 456.44 53.93 456.47 53.99C456.5 54.07 456.63 54.01 456.7 54.01C456.8 54.05 456.84 54.16 456.87 54.22C456.9 54.3 457.19 54.28 457.24 54.27C457.12 54.36 456.97 54.48 456.97 54.59C456.94 54.59 456.89 54.59 456.85 54.6C456.82 54.61 456.54 54.43 456.51 54.4C456.33 54.41 456.15 54.42 456.01 54.43C455.72 54.38 455.31 54.22 455.31 54C455.32 53.94 455.16 53.89 455.13 53.86C454.76 53.49 454.47 52.99 453.79 53C453.29 53.03 453.31 53.35 453.02 53.52C453.08 53.78 452.9 53.88 452.89 53.99C452.65 54.02 452.4 54.04 452.13 54.02C451.6 54.03 451.5 53.45 450.97 53.46C450.91 53.46 450.67 53.51 450.66 53.59C450.52 53.6 450.34 53.6 450.23 53.6C450.09 53.61 449.91 53.58 449.91 53.45C449.93 53.22 450.35 53.1 450.44 53.04C450.17 52.78 450.3 52.51 450.21 52.19C450.12 51.96 449.58 51.75 449.36 51.65C449.14 51.56 448.58 51.46 448.24 51.46C447.92 51.45 447.83 50.94 447.48 51.04C447.49 50.99 447.48 50.91 447.49 50.86C447.43 51.03 447.29 51.23 447.16 51.23C447.11 51.24 446.96 51.22 446.95 51.17C446.84 50.95 446.95 50.89 446.86 50.72C446.74 50.56 446.52 50.6 446.48 50.48C446.79 50.36 447.41 50.37 447.57 50.13C447.53 50.13 447.46 50.13 447.42 50.13C447.18 50.2 447.04 50.22 446.8 50.22C446.72 50.22 446.58 50.18 446.51 50.16C446.46 50.15 446.4 50.03 446.39 49.98C446.23 49.69 445.74 49.82 445.74 49.53C445.74 49.44 445.95 49.36 446.04 49.34C446.31 49.35 446.46 49.01 446.84 48.99C447.21 48.99 447.46 49.31 447.85 49.4C447.84 49.65 447.82 49.87 447.83 50.14C447.83 50.22 448 50.32 448.14 50.32C448.14 50.38 448.45 50.72 448.55 50.72C448.71 50.72 448.91 50.4 448.94 50.37C449.12 50.2 449.16 50.18 449.45 50.1C449.64 50.03 449.89 49.65 450.16 49.62C450.17 49.7 450.36 49.71 450.41 49.72C450.65 49.8 450.84 50.05 450.93 50.1C451.13 50.11 451.35 50.09 451.49 50.09C451.56 50.15 451.76 50.23 451.84 50.25C451.83 50.24 451.8 50.22 451.8 50.21C451.82 50.22 451.85 50.24 451.86 50.26C451.87 50.26 451.89 50.27 451.9 50.27V50.29C452.21 50.51 452.82 50.7 453.27 50.68C453.52 50.68 453.63 50.96 453.86 50.94C453.86 51.1 454.03 51.11 454.11 51.13C454.74 51.32 454.68 51.82 455.14 52.06C455.31 52.09 455.73 51.86 455.7 52.3ZM448.05 52.25C448.05 52.34 447.95 52.45 447.87 52.45C447.86 52.65 447.85 52.86 447.73 52.87C447.68 52.86 447.6 52.76 447.61 52.71C447.61 52.5 447.82 52.46 447.83 52.37C447.83 52.23 447.86 52.04 447.97 52.03C448.01 52.19 448.05 52.14 448.05 52.25ZM445.94 55.32C445.94 55.4 445.94 55.52 445.93 55.59C445.88 55.59 445.77 55.58 445.72 55.59C445.46 55.59 445.16 55.47 445.09 55.41C445.48 55.34 445.63 55.3 445.94 55.32ZM446.88 27.62C446.88 27.62 447.29 27.37 447.3 27.36C447.68 27.47 447.74 27.16 448.04 27.16C448.53 27.19 448.26 27.81 448.04 27.8C447.86 27.8 447.76 27.68 447.71 27.66C447.51 27.83 447.48 28.1 447.18 28.1C447.1 28.09 447.03 27.89 447.05 27.82C446.92 27.75 446.89 27.68 446.88 27.62ZM454.75 21.89C454.82 21.8 455.04 21.68 455.17 21.68C455.16 21.67 455.15 21.66 455.14 21.66C455.16 21.66 455.18 21.68 455.2 21.68C455.19 21.68 455.18 21.69 455.17 21.68C455.19 21.7 455.23 21.72 455.24 21.73C455.17 21.81 454.93 22.05 454.76 22.04C454.7 22.03 454.71 21.94 454.75 21.89ZM452.62 16.64C452.61 16.57 452.68 16.53 452.69 16.47C452.68 16.38 452.68 16.28 452.67 16.19C452.71 16.19 452.77 16.2 452.81 16.2C452.83 16.48 453 16.65 453.1 16.84C453.19 17.04 453.05 17.17 453.2 17.36C453.2 17.49 453.22 17.59 453.22 17.69C453.19 17.82 453.34 18.01 453.39 18.07C453.58 18.42 453.85 18.73 454 19.08C453.89 18.97 453.71 18.88 453.57 18.86C453.02 18.82 453 19.26 453.01 19.64C453.03 19.98 453.47 20.16 453.64 20.42C453.63 20.41 453.59 20.44 453.58 20.43C453.51 20.44 453.4 20.31 453.37 20.27C453.32 20.27 453.22 20.26 453.17 20.25C452.92 20.25 452.95 20.55 452.69 20.54C452.64 20.54 452.67 20.18 452.67 20.12C452.65 19.86 452.73 19.68 452.72 19.48C452.71 19.27 452.59 19.25 452.58 19.07C452.57 18.86 452.66 18.81 452.66 18.64C452.64 18.35 452.64 18.08 452.61 17.82C452.6 17.59 452.29 17.52 452.28 17.3C452.22 17.02 452.32 16.66 452.62 16.64ZM451.82 22.2C451.82 22.16 451.83 22.1 451.82 22.07C451.86 22.09 451.92 22.16 451.97 22.16C451.96 22.15 451.94 22.13 451.93 22.12C451.98 22.14 452.09 22.12 452.14 22.13C452.5 22.13 452.61 21.49 452.6 21.29C452.59 21.24 452.5 21.17 452.49 21.12C452.48 21.02 452.56 20.95 452.6 20.91C453.17 21.26 453.44 21.78 454.23 21.85C454.39 21.87 454.55 21.79 454.65 21.85C454.61 21.92 454.54 21.97 454.54 22.04C454.55 22.12 454.73 22.25 454.79 22.28C454.62 22.37 454.48 22.41 454.17 22.38C453.74 22.36 453.61 22.73 453.46 22.92C453.12 22.74 452.92 22.67 452.55 22.48C452.5 22.49 452.41 22.57 452.41 22.61C452.13 22.59 451.78 22.42 451.79 22.69C451.8 22.87 452.13 22.89 452.2 22.95C452.04 23.12 451.88 23.03 451.71 23.18C451.68 23.17 451.62 23.17 451.59 23.17C451.59 23.03 451.58 22.88 451.58 22.78C451.58 22.72 451.47 22.66 451.47 22.6C451.46 22.41 451.78 22.3 451.82 22.2ZM446.26 27.13C446.73 26.87 446.92 26.42 447.48 26.46C447.94 26.46 448.38 26.48 448.83 26.5C449.21 26.5 449.37 25.98 449.51 25.97C449.53 25.97 449.82 25.55 449.87 25.54C449.82 25.58 449.76 25.68 449.77 25.73C449.77 25.76 449.85 25.82 449.88 25.82C450.21 25.82 450.25 25.66 450.5 25.6C450.95 25.48 451.65 24.78 451.63 24.23C451.63 24.13 451.54 24.09 451.54 24.02C451.53 23.81 451.73 23.4 452 23.41C452.03 23.42 452.02 23.63 452.27 23.48C452.26 23.47 452.22 23.47 452.21 23.46C452.16 23.45 452.12 23.31 452.16 23.3C452.31 23.31 452.39 23.36 452.41 23.4C452.48 23.53 452.47 23.65 452.46 23.75C452.47 24 452.75 24.13 452.77 24.37C452.76 24.66 452.49 24.67 452.5 24.89C452.5 24.92 452.51 24.97 452.5 24.99C452.45 25.03 452.36 25 452.31 25.02C452.1 25.08 452.17 25.61 452.18 25.8C452.17 25.96 451.96 26.05 451.96 26.29C451.97 26.45 452.03 26.55 452.07 26.63C451.83 26.72 451.82 26.9 451.57 26.96C451.49 26.8 451.57 26.77 451.58 26.67C451.28 26.82 451.11 26.8 451.01 27.08C450.98 27.07 450.91 27.01 450.9 26.99C450.84 26.99 450.74 26.98 450.68 26.98C450.54 27.1 450.39 27.19 450.26 27.18C449.8 27.15 449.78 26.85 449.63 26.85C449.58 26.85 449.5 26.95 449.5 26.99C449.51 27.04 449.71 27.28 449.72 27.29C449.67 27.29 449.56 27.3 449.5 27.3C449.34 27.31 449.09 27.59 448.99 27.75C448.8 27.72 448.8 27.56 448.68 27.56C448.63 27.55 448.67 27.46 448.68 27.42C448.69 27.34 448.75 27.17 448.74 27.11C448.48 27.04 448.35 26.94 448.09 26.93C447.95 26.93 447.92 27.07 447.87 27.07C447.68 27.15 447.52 27.07 447.39 27.11C447.09 27.22 446.71 27.35 446.25 27.33C446.09 27.35 445.94 27.31 445.94 27.25C445.98 27.21 446.19 27.14 446.26 27.13ZM445.84 27.46C446.03 27.45 446.16 27.58 446.41 27.62C446.42 27.66 446.39 27.78 446.43 27.8C446.49 27.83 446.58 27.91 446.63 27.95C446.63 27.99 446.61 28.09 446.63 28.13C446.58 28.12 446.48 28.15 446.43 28.13C446.36 28.46 446.19 29.01 445.88 29.02C445.83 29.02 445.8 28.89 445.81 28.85C445.81 28.88 445.81 28.93 445.81 28.96C445.63 28.94 445.5 28.71 445.5 28.66C445.5 28.63 445.72 28.37 445.72 28.37C445.74 28.3 445.79 28.18 445.81 28.12C445.68 28.08 445.66 27.94 445.63 27.88C445.64 27.92 445.59 28.01 445.63 28.04C445.55 28.05 445.41 28.11 445.36 28.11C445.28 28.11 445.13 27.97 445.14 27.9C445.17 27.82 445.8 27.47 445.84 27.46ZM444.96 50.44C445 50.58 445.18 50.54 445.28 50.52C445.3 50.52 445.33 50.5 445.34 50.5C445.37 50.68 445.58 50.74 445.59 50.87C445.58 50.9 445.49 50.92 445.46 50.91C445.16 50.9 445.03 50.7 444.72 50.7C444.56 50.69 444.35 50.71 444.23 50.7C444.17 50.7 443.85 50.62 443.85 50.62C443.85 50.54 443.97 50.46 444 50.44C444.33 50.43 444.63 50.43 444.96 50.44ZM443.83 47.28C443.87 47.59 444.01 47.77 444.38 47.84C444.38 47.94 444.17 48.02 444.16 48.11C444.16 48.19 444.31 48.3 444.32 48.43C444.26 48.45 443.95 48.48 443.83 48.47C443.83 48.51 443.83 48.58 443.83 48.62C443.92 48.75 443.98 48.87 444.06 48.98C443.84 48.96 443.79 48.68 443.79 48.58C443.79 48.51 443.8 48.38 443.79 48.31C443.79 48.07 443.62 47.99 443.63 47.71C443.64 47.54 443.71 47.35 443.83 47.28ZM443.38 44.18C443.33 44.38 443.06 44.5 443 44.84C442.95 44.82 442.82 44.52 442.78 44.4C442.78 44.41 442.78 44.42 442.78 44.42C442.77 44.38 442.69 44.3 442.66 44.26C442.55 44.37 442.43 44.44 442.41 44.53C442.39 44.67 442.65 44.72 442.63 44.95C442.61 45.1 442.45 45.23 442.34 45.22C442.29 45.23 442.24 45.11 442.25 45.06C442.19 45.08 442.06 45.07 442.01 45.07C441.68 45.05 441.45 44.73 441.5 44.36C441.52 44.21 441.59 44.15 441.65 44.13C441.64 44.08 441.6 43.98 441.59 43.93C441.51 43.93 441.34 43.92 441.26 43.92C441.25 43.96 441.22 44.05 441.24 44.1C441.1 44.1 441.04 44.03 441.02 44C441 44.03 440.95 44.07 440.94 44.09C440.89 44.07 440.73 43.91 440.73 43.91C440.47 44.12 440.43 44.76 440.17 44.74C439.98 44.72 440.22 44.35 440.23 44.29C440.24 44.25 440.16 44.13 440.17 44.09C440.2 43.9 440.3 43.79 440.38 43.58C440.88 43.58 440.81 43.16 441.23 43.17C441.54 43.18 441.49 43.5 441.61 43.5C441.64 43.51 441.72 43.51 441.75 43.5C441.77 43.35 441.89 43.26 442 43.25C442.05 42.98 442.47 43.03 442.53 42.94C442.61 42.79 442.64 42.51 442.66 42.47C442.83 42.47 442.95 42.6 443.01 42.66C443.17 42.84 443.39 44.05 443.38 44.18ZM438.89 53.76C438.9 53.6 439.17 53.61 439.28 53.63C439.68 53.63 439.81 53.78 440.14 53.78C440.47 53.79 440.58 53.65 440.77 53.59C440.61 53.86 440.44 53.86 440.14 53.98C439.88 53.96 439.63 53.98 439.36 53.97C439.21 53.95 438.89 53.98 438.89 53.76ZM439.36 54.67C439.35 54.72 439.24 54.81 439.19 54.81C439.17 54.81 439.13 54.81 439.1 54.81C439.02 54.81 438.97 54.6 438.97 54.55C438.75 54.55 438.42 54.52 438.41 54.32C438.42 54.15 438.71 54.21 438.82 54.21C438.87 54.22 438.98 54.21 439.03 54.21C439.04 54.49 439.35 54.42 439.36 54.67ZM440.49 50.61C440.47 50.64 440.41 50.7 440.4 50.73C440.4 50.83 440.63 51.08 440.7 51.11C440.68 51.34 440.23 51.32 440.23 51.54C440.16 51.55 440.02 51.53 439.95 51.54C439.97 51.49 439.95 51.4 439.95 51.35C439.94 51.09 439.62 50.98 439.61 50.71C439.64 50.57 439.68 50.39 439.7 50.28C439.65 50.29 439.58 50.28 439.53 50.28C439.38 50.29 439.21 50.41 439.21 50.52C439.21 50.8 439.4 50.93 439.4 51.2C439.4 51.28 439.31 52.02 439.08 52.01C438.91 52.01 438.74 51.84 438.74 51.74C438.74 51.43 438.75 51.08 438.74 50.76C438.61 50.74 438.32 50.73 438.31 50.48C438.31 50.03 438.53 49.85 438.7 49.36C438.72 49.3 438.89 49.14 438.89 49.05C438.89 48.54 439.14 47.87 439.71 47.86C440.22 47.96 440.71 48.03 441.21 48.13C441.25 48.13 441.34 48.13 441.38 48.13C441.51 48 441.81 47.82 442.07 47.65C442.1 47.65 442.17 47.65 442.2 47.65C442.19 47.7 442.14 47.82 442.09 47.82C442.01 48.13 441.87 48.48 441.44 48.49C441.15 48.47 440.98 48.35 440.69 48.33C440.38 48.33 440.24 48.41 439.87 48.4C439.5 48.38 439.17 48.3 439.16 48.72C439.17 49.03 439.28 49.44 439.61 49.44C439.71 49.44 439.79 49.32 439.85 49.23C439.84 49.25 439.82 49.29 439.81 49.31C439.84 49.27 441 48.93 441.1 48.95C441.1 48.99 441.1 49.08 441.1 49.12C440.6 49.26 440.56 49.73 439.96 49.71C439.96 49.78 440.4 50.55 440.49 50.61ZM438.33 53.93C438.28 53.93 438.18 53.92 438.14 53.93C438.1 53.91 438.02 53.86 437.97 53.84C437.75 53.91 437.67 54.03 437.46 54.03C437.28 54.02 437.03 53.94 437.03 53.88C437.03 53.67 437.25 53.67 437.39 53.69C437.58 53.69 437.72 53.75 437.8 53.78C437.81 53.74 437.81 53.66 437.82 53.62C437.99 53.63 438.21 53.63 438.34 53.63C438.32 53.79 438.29 53.9 438.33 53.93ZM439.31 40.09C439.36 40.11 439.49 40.1 439.54 40.1C439.8 40.27 440.06 40.23 440.1 40.47C440.12 40.63 439.95 40.87 439.88 40.86C439.74 40.85 439.31 40.09 439.31 40.09ZM441.84 54.16C441.89 54.14 441.92 54.01 441.95 53.98C442.18 53.79 443.1 53.69 443.31 53.83C443.07 54.11 442.37 54.29 442.03 54.28C441.95 54.29 442.01 54.5 441.96 54.54C441.85 54.64 441.48 54.87 441.24 54.87C441.18 54.87 441.09 54.75 441.09 54.69C441.11 54.25 441.5 54.27 441.84 54.16ZM443.12 51.01C443.02 51 442.74 50.74 442.74 50.61C442.76 50.36 443.32 50.52 443.33 50.74C443.34 50.77 443.17 51 443.12 51.01ZM441.18 41.82C441.43 41.77 441.51 41.96 441.5 42.05C441.46 42.28 441.19 42.41 441.15 42.68C441.13 42.84 441.24 42.85 441.23 42.94C441.23 42.97 441.11 43.04 441.08 43.04C441.01 43.03 440.63 42.61 440.64 42.51C440.65 42.47 440.81 42.39 440.87 42.4C440.88 42.34 441.1 41.83 441.18 41.82ZM441.15 41.04C441.16 40.97 441.18 40.81 441.19 40.74C441.24 40.74 441.35 40.75 441.4 40.75C441.45 40.94 441.73 40.98 441.71 41.26C441.69 41.33 441.47 41.13 441.48 41.05C441.39 41.03 441.23 41.04 441.15 41.04ZM440.27 42.15C440.32 41.79 440.28 41.38 440.3 41.25C440.3 41.22 440.42 41.15 440.45 41.15C440.48 41.16 440.51 41.21 440.54 41.22C440.72 41.3 441.11 41.42 441.1 41.53C441.04 41.89 440.5 42.02 440.27 42.15ZM440.21 40.23C440.25 40.22 440.41 40.21 440.44 40.24C440.4 40.25 440.23 40.27 440.21 40.23ZM441.51 42.64C441.52 42.55 441.69 42.43 441.76 42.35C441.84 42.38 442 42.4 442.06 42.36C442.02 42.58 441.84 42.75 441.63 42.75C441.61 42.75 441.51 42.67 441.51 42.64ZM442.1 40.77C442.29 40.77 442.47 40.85 442.6 40.86C442.59 40.9 442.59 41.01 442.57 41.06C442.6 41.06 442.68 41.08 442.71 41.06C442.72 41.15 442.67 41.38 442.67 41.38C442.67 41.38 442.82 41.55 442.83 41.56C442.79 41.64 442.72 41.76 442.7 41.82C442.62 41.81 442.44 41.81 442.35 41.81C442.35 41.98 442.44 42.18 442.5 42.21C442.49 42.24 442.49 42.3 442.48 42.33C442.43 42.33 442.32 42.31 442.27 42.32C442.1 42.31 442.11 42.13 442.19 42.04C442.19 42.01 442.2 41.95 442.21 41.92C442.04 41.91 441.91 41.7 441.89 41.65C441.89 41.62 441.9 41.56 441.91 41.53C441.99 41.53 442.14 41.54 442.21 41.54C442.24 41.54 442.33 41.45 442.34 41.42C442.37 41.13 441.88 40.95 441.86 40.83C441.93 40.83 442.05 40.76 442.1 40.77ZM441.83 41.86C441.77 42.21 441.47 42.31 441.42 42.61C441.39 42.61 441.33 42.61 441.3 42.61C441.41 42.38 441.56 42.21 441.62 41.86C441.67 41.85 441.78 41.85 441.83 41.86ZM439 34.05C439.02 33.59 439.54 32.78 439.88 32.76C440.51 32.83 439.92 34.62 439.36 34.66C438.9 34.64 438.98 34.36 439 34.05ZM439.13 38.32C439.25 38.18 439.34 37.86 439.35 37.73C439.39 37.49 439.3 37.33 439.32 37.09C439.36 36.89 439.47 36.69 439.61 36.7C439.87 36.71 439.77 37.06 439.98 37.07C440.13 37.07 440.24 36.91 440.31 36.88C440.31 36.9 440.34 36.95 440.34 36.98C440.34 37.02 440.36 37.09 440.37 37.12C440.34 37.39 440.59 37.68 440.55 38.03C440.48 38.47 440.08 38.49 440.01 38.92C439.98 39.22 440.22 39.73 440.47 39.83C440.47 39.81 440.48 39.75 440.48 39.73C440.49 39.67 440.66 39.57 440.76 39.58C441.04 39.61 441.09 40.04 441.19 40.05C441.26 40.05 441.35 39.92 441.42 39.91C441.45 39.93 441.52 39.94 441.55 39.95C441.52 40.04 441.39 40.11 441.38 40.18C441.38 40.21 441.51 40.2 441.54 40.19C441.52 40.36 441.69 40.43 441.81 40.44C441.8 40.48 441.79 40.56 441.79 40.6C441.78 40.63 441.71 40.73 441.68 40.72C441.63 40.71 441.59 40.6 441.59 40.56C441.47 40.32 440.95 40.12 440.83 39.94C440.69 40.09 440.77 40.2 440.8 40.32C440.47 40.29 440.53 39.86 440.18 39.86C440.04 39.85 439.89 39.97 439.79 39.97C439.63 39.96 439.47 39.75 439.48 39.68C439.5 39.59 439.61 39.49 439.65 39.47C439.66 39.42 439.67 39.32 439.68 39.27C439.65 39.27 439.57 39.27 439.54 39.27C439.5 39.32 439.41 39.41 439.36 39.41C439.29 39.41 438.89 39.13 438.9 39.04C438.95 38.69 438.91 38.28 439.13 38.32ZM438.56 41.96C438.61 41.89 438.65 41.74 438.71 41.71C438.68 41.91 438.81 41.98 438.88 42.03C438.81 42.08 438.71 42.14 438.63 42.14C438.56 42.31 438.34 42.36 438.2 42.35C438.04 42.8 437.56 43.06 437.27 43.19C437.23 43.19 437.15 43.18 437.11 43.18C437.45 42.6 438.24 42.39 438.56 41.96ZM431.97 36.65C431.97 36.57 431.9 36.36 431.97 36.36C432.13 36.35 432.81 35.9 433.07 35.89C433.14 35.89 433.31 36.09 433.3 36.18C433.3 36.46 432.72 37.03 432.4 37.04C432.1 37.03 431.96 36.89 431.97 36.65ZM432.89 47.62C433.56 47.64 433.46 47 433.77 46.69C433.91 46.55 434.13 46.56 434.38 46.51C434.71 46.46 434.71 46.24 434.88 46.07C434.82 46 435.03 45.81 435.03 45.81C435.17 45.75 435.17 45.7 435.25 45.66C435.3 45.65 435.35 45.52 435.38 45.49C435.58 45.31 436.1 45.37 436.17 45.25C436.36 44.89 436.83 44.09 437.19 44.09C437.58 44.1 437.52 44.31 437.52 44.64C437.54 45.1 438.44 44.84 438.44 45.29C438.43 45.47 437.96 45.4 437.95 45.54C437.95 45.57 438.01 45.66 438.04 45.65C438 45.7 437.4 45.94 437.4 45.94C437.42 45.99 437.47 46.09 437.49 46.13C437.44 46.15 437.33 46.23 437.33 46.28C437.34 46.62 437.92 47.67 438.32 47.7C438.25 48.02 438.08 47.91 437.84 47.9C437.79 47.92 437.67 47.92 437.62 47.94C437.59 47.99 437.54 48.1 437.51 48.15C437.4 48.61 437.22 48.73 437.22 49.1C436.95 49.14 436.74 49.48 436.74 49.57C436.74 49.71 436.85 49.79 436.85 49.87C436.84 50.04 436.59 50.34 436.59 50.57C436.25 50.64 436.21 50.9 435.92 50.88C435.7 50.88 435.63 50.68 435.64 50.58C435.29 50.49 435.06 50.23 434.69 50.22C434.52 50.22 434.42 50.44 434.16 50.43C434.11 50.42 434.03 50.33 433.99 50.32C433.96 50.31 433.96 50.07 433.95 50.01C433.78 49.98 433.63 50.11 433.5 50.1C432.7 50.05 433.02 49.38 432.76 48.93C432.76 48.9 432.77 48.85 432.78 48.83C432.75 48.75 432.58 48.71 432.5 48.69C432.42 48.66 432.18 47.87 432.17 47.79C432.14 47.44 432.58 47.61 432.89 47.62ZM436.91 53.71C436.89 53.81 436.78 53.91 436.7 53.91C436.65 53.91 436.53 53.81 436.53 53.76C436.53 53.71 436.52 53.61 436.53 53.56C436.58 53.56 436.68 53.55 436.72 53.57C436.79 53.56 436.84 53.67 436.91 53.71ZM431.65 50C431.7 50.01 431.79 50.1 431.84 50.11C431.82 50.24 431.71 50.37 431.61 50.35C431.51 50.34 431.46 50.17 431.44 50.1C431.44 50.07 431.43 50.02 431.44 49.99C431.49 50 431.59 50 431.65 50ZM430.35 49.26C430.46 49.57 430.6 49.96 430.89 49.99C430.9 50.04 430.91 50.14 430.92 50.2C430.88 50.2 430.81 50.2 430.77 50.19C430.67 50.19 430.56 50.06 430.49 50.05C430.46 50.05 430.36 49.8 430.34 49.75C430.24 49.58 429.91 49.63 429.92 49.5C429.92 49.43 430.24 49.26 430.35 49.26ZM425.81 48.04C425.75 48.02 425.47 47.66 425.44 47.57C425.44 47.57 425.43 47.57 425.42 47.57C425.45 47.56 425.49 47.55 425.52 47.53C425.64 47.62 425.94 48.04 425.81 48.04ZM426.18 48.9C426.18 48.88 426.17 48.84 426.18 48.82C426.22 48.83 426.3 48.81 426.34 48.83C426.34 48.86 426.33 48.91 426.34 48.93C426.47 49.1 426.57 49.2 426.56 49.42C426.48 49.38 426.19 49.02 426.18 48.9ZM429.18 51.26C428.77 50.85 428.4 50.69 428.02 50.28C427.59 49.84 427.4 49.49 427.19 48.98C427.15 48.9 426.88 48.45 426.83 48.44C426.78 48.44 426.79 48.3 426.76 48.25C426.74 48.22 426.47 48.18 426.44 48.13C426.36 48.08 426.17 47.52 426.13 47.39C425.97 46.89 425.52 46.97 425.37 46.66C425.25 46.45 425.16 46.23 425.05 46.02C424.95 45.83 424.75 45.87 424.59 45.81C424.42 45.75 424.1 45.17 424.04 44.95C424.05 44.91 424.03 44.82 424.04 44.78C424.07 44.78 424.12 44.78 424.16 44.79C424.36 44.8 424.43 44.93 424.56 45C424.78 45.01 425 45.01 425.22 45.03C425.67 45.2 425.8 45.52 425.98 45.86C426.01 45.94 426.14 45.96 426.2 45.98C426.5 46.1 426.65 46.36 426.86 46.58C427.26 47 427.49 47.28 428.07 47.5C428.4 47.62 428.75 47.72 428.74 48.05C428.74 48.08 428.72 48.13 428.7 48.15C428.74 48.15 428.82 48.16 428.87 48.16C428.93 48.17 429.03 48.29 429.06 48.36C429.04 48.41 429.01 48.51 428.98 48.57C428.98 48.85 429.15 48.92 429.38 48.92C429.4 49.37 429.64 49.5 429.88 49.73C430 49.87 430.31 49.92 430.31 50.14C430.31 50.45 430.3 50.75 430.33 51.02C430.12 51.1 430.23 51.39 430.24 51.59C430.23 51.82 429.8 51.86 429.69 51.84C429.61 51.82 429.2 51.27 429.18 51.26ZM432.83 53.14C432.43 53.12 432.09 53.1 431.67 52.95C431.35 52.83 431.07 53 430.83 52.81C430.61 52.6 430.46 52.34 430.13 52.33C430.15 52.29 430.54 51.91 430.63 51.93C430.68 51.93 430.75 52.02 430.8 52.02C430.9 52.03 431.03 51.9 431.13 51.92C431.77 51.96 432.04 52.62 432.74 52.64C433.07 52.65 433.11 52.36 433.37 52.36C433.81 52.38 433.94 52.74 434.33 52.76C434.55 52.74 434.75 52.71 434.97 52.7C435.01 52.7 435.1 52.71 435.14 52.71C435.11 52.79 434.38 52.84 434.35 52.82C434.61 53.04 434.86 53.09 435.25 53.12C435.35 53.12 435.39 53.28 435.42 53.31C435.58 53.44 435.74 53.3 435.93 53.37C436.13 53.44 436.16 53.52 436.28 53.56C436.25 53.63 436.08 53.76 436.05 53.77C435.83 53.77 435.87 53.61 435.6 53.62C435.55 53.62 435.58 53.77 435.6 53.82C434.87 53.53 434.17 53.47 433.34 53.43C433.11 53.4 433.04 53.17 432.83 53.14ZM448.14 67.06C448.52 66.91 448.53 66.96 448.8 67.02C448.58 67.12 448.3 67.14 448.14 67.06ZM453.86 68.67C453.79 68.92 453.21 69.52 452.87 69.57C452.36 69.64 451.99 68.91 452.02 68.7C452.07 68.51 452.96 68.58 452.98 68.58C453.2 68.55 453.51 68.44 453.76 68.37C453.77 68.5 453.89 68.49 453.86 68.67ZM453.88 68.24C453.73 68.21 453.73 68.19 453.75 68.07C453.83 68.07 453.93 68.06 453.97 68.04C453.94 68.14 453.89 68.16 453.88 68.24ZM457.52 62.98C457.46 63.3 457.27 63.72 457.09 63.89C457.07 64.01 457.05 64.14 457.01 64.27C456.91 64.39 456.93 64.45 456.83 64.56C456.43 64.99 456.09 65.14 455.84 65.6C455.63 65.92 455.21 66.36 455.1 66.78C454.75 67.36 453.44 67.31 453.16 67.89C453.03 67.9 452.36 67.73 452.35 67.64C451.94 67.72 452.02 67.93 451.59 67.98C450.88 68.05 449.8 67.86 449.85 67.34C449.88 67.15 449.67 67.03 449.66 66.85C449.66 66.83 449.66 66.81 449.65 66.79C449.52 66.86 449.39 66.87 449.26 66.91C449.2 66.91 449.1 66.91 449.04 66.93C449.11 66.83 449.18 66.78 449.21 66.64C449.22 66.48 449.13 66.44 449.05 66.39C449.04 66.44 448.98 66.48 449 66.52C448.82 66.59 448.78 66.82 448.5 66.84C448.42 66.85 448.32 66.8 448.32 66.72C448.81 66.61 448.98 65.94 448.98 65.72C448.62 66 448.08 66.7 447.66 66.73C447.43 66.73 447.53 66.5 447.53 66.5C447.4 66.49 447.03 65.86 446.89 65.72C446.58 65.46 445.47 65.36 444.81 65.37C444.09 65.4 443.95 65.6 443.52 65.71C442.49 65.96 441.32 65.72 441.11 66.4C440.71 66.43 440.38 66.5 439.94 66.48C439.62 66.37 439.63 66.46 439.4 66.47C438.7 66.46 438.46 66.88 437.57 66.85C437.24 66.84 436.33 66.52 436.3 66.32C436.3 66.12 436.74 66.05 436.72 65.73C436.7 65.31 436.41 65.09 436.29 64.82C436.02 64.16 435.97 63.97 435.68 63.36C435.56 63.14 435.19 63.04 435.26 62.8C435.3 62.74 435.32 62.68 435.37 62.61C435.41 62.68 435.5 62.79 435.56 62.82C435.61 62.76 435.57 62.69 435.55 62.62C435.54 62.39 435.29 62.19 435.28 61.79C435.27 61.49 435.26 61.18 435.25 60.86C435.25 60.73 435.4 60.7 435.47 60.67C435.48 60.72 435.49 60.79 435.5 60.84C435.9 60.8 436.34 60.43 436.56 60.26C436.82 60.07 437.54 60.06 437.93 60.02C438.69 59.94 440.34 59.5 440.38 58.92C440.38 58.83 440.38 58.71 440.38 58.63C440.38 58.47 440.44 58.29 440.66 58.2C440.77 58.37 440.9 58.45 440.97 58.55C441.2 58.42 441.1 58.17 441.21 57.97C441.38 58.05 441.52 58.12 441.65 58.12C441.67 57.61 442.07 57.54 442.13 57.15C442.71 57.14 442.81 56.82 443.26 56.79C443.65 56.82 443.84 57.13 443.88 57.47C444 57.34 444.2 57.28 444.35 57.27C444.43 57.27 444.63 57.39 444.66 57.41C444.79 57.24 444.73 57.1 444.74 56.96C444.75 56.71 445.07 56.6 445.07 56.33C445.09 56.08 445.92 55.9 446.29 55.9C446.44 55.89 446.62 55.78 446.67 55.77C446.54 55.61 446.34 55.57 446.31 55.35C447.03 55.61 447.42 55.83 448.18 55.83C448.46 55.81 448.54 55.69 448.77 55.67C448.87 55.66 449.17 55.86 449.17 55.98C449.15 56.22 448.85 56.23 448.67 56.35C448.57 56.65 448.47 56.93 448.37 57.25C448.37 57.39 448.66 57.38 448.77 57.41C448.89 57.49 448.89 57.76 448.95 57.75C449.5 57.91 449.79 57.98 450.29 58.13C450.57 58.21 450.63 58.58 451.02 58.56C451.65 58.51 451.84 57.53 451.97 57.1C452.01 56.58 452.04 56.04 452.09 55.5C452.43 55.27 452.34 55.04 452.7 54.86C452.74 55.36 452.95 55.66 453.06 55.99C453.12 56.24 452.99 56.53 453.2 56.69C453.4 56.74 453.77 56.82 453.84 56.85C454.06 57 454.02 57.52 454.09 57.8C454.22 58.26 454.35 58.44 454.46 58.86C454.59 59.26 455.36 59.31 455.66 59.58C455.86 59.76 455.87 60.06 455.91 60.27C455.97 60.48 456.25 60.43 456.49 60.42C456.42 61.06 457.07 61.23 457.35 61.48C457.35 61.5 457.34 61.52 457.32 61.53C457.56 61.79 457.61 62.55 457.52 62.98ZM457.83 51.9C457.47 52 457.29 52.2 456.89 52.24C456.84 52.25 456.68 52.17 456.61 52.12C456.62 52.13 456.66 52.15 456.64 52.15C456.63 52.14 456.61 52.12 456.6 52.11C456.59 52.1 456.59 52.09 456.58 52.09C456.42 51.98 456.14 52.01 456.11 51.79C456.3 51.77 456.51 51.78 456.69 51.76C456.72 51.77 456.91 51.69 456.91 51.69C457.21 51.58 457.48 51.57 457.67 51.5C457.94 51.33 457.87 50.93 458.13 50.91C458.23 50.91 458.29 51.1 458.28 51.19C458.23 51.6 457.85 51.53 457.83 51.9ZM458.75 51.09C458.72 51.09 458.66 51.13 458.64 51.1C458.41 51.07 458.42 50.94 458.48 50.74C458.24 50.62 458.31 50.42 458.06 50.27C457.92 50.18 457.78 50.17 457.73 50.05C458.1 50.16 458.23 50.37 458.44 50.59C458.58 50.73 458.77 50.68 458.77 50.96C458.76 50.99 458.73 51.07 458.75 51.09ZM459.87 52.23C459.82 52.23 459.76 52.15 459.77 52.1C459.77 52.06 459.78 51.99 459.78 51.95C459.56 51.91 459.51 51.73 459.56 51.54C459.67 51.61 460.01 52.01 460.01 52.06C460.01 52.12 459.92 52.22 459.87 52.23ZM460.64 52.3C460.56 52.24 460.46 52.19 460.39 52.13C460.42 52.12 460.46 52.11 460.48 52.11C460.47 52.11 460.47 52.1 460.46 52.1C460.46 52.1 460.47 52.11 460.48 52.11C460.61 52.18 460.72 52.17 460.8 52.29C460.75 52.29 460.69 52.31 460.64 52.3ZM461.66 52.83C461.51 52.84 461.15 52.73 461.15 52.52C461.16 52.52 461.19 52.52 461.19 52.52C461.2 52.5 461.23 52.48 461.23 52.46C461.39 52.55 461.72 52.62 461.81 52.78C461.76 52.8 461.7 52.82 461.66 52.83ZM462.46 53.79C462.26 53.81 462 53.77 462.01 53.55C462.28 53.51 462.46 53.58 462.55 53.75C462.52 53.76 462.49 53.79 462.46 53.79ZM462.18 52.82C462.41 52.94 462.56 53.1 462.61 53.36C462.44 53.38 462.19 52.95 462.18 52.82ZM462.95 54.12C462.77 54.13 462.71 53.86 462.73 53.77C462.86 53.85 463 53.89 462.97 54.01C462.96 54.04 462.95 54.08 462.95 54.12ZM465.77 64.12C465.72 64.16 465.68 64.21 465.63 64.25C465.61 64.24 465.59 64.24 465.61 64.19C465.64 64.16 465.66 64.11 465.69 64.08C465.41 64.15 465.38 63.87 465.39 63.65C465.47 63.78 465.58 63.66 465.76 63.77C465.85 63.86 465.74 63.87 465.84 63.88C465.82 63.92 465.78 63.93 465.76 63.97C465.75 64 465.75 64.07 465.77 64.12ZM469.58 56.36C469.48 56.49 469.51 56.46 469.37 56.48C469.28 56.5 469.08 56.52 469.11 56.45C469.17 56.22 469.36 56.13 469.5 56.04C469.53 56.14 469.54 56.13 469.63 56.15C469.6 56.23 469.59 56.29 469.58 56.36ZM470.22 55.53C470.06 55.64 470.01 55.81 469.83 55.85C469.78 55.86 469.76 55.76 469.79 55.72C469.84 55.5 470.16 55.42 470.26 55.38C470.25 55.42 470.25 55.48 470.22 55.53Z" fill="white"/>
</svg>
