<svg id="Capa_1" enable-background="new 0 0 512 512" height="512" viewBox="0 0 512 512" width="512" xmlns="http://www.w3.org/2000/svg"><g><path d="m163 446h186c5.522 0 10-4.477 10-10v-144c0-5.523-4.478-10-10-10h-186c-5.522 0-10 4.477-10 10v144c0 5.523 4.478 10 10 10zm10-72h73v52h-73zm93 52v-52h73v52zm73-72h-73v-52h73zm-93-52v52h-73v-52z"/><path d="m499.449 218.357-41.449-34.978v-119.379c0-5.523-4.478-10-10-10h-64c-5.522 0-10 4.477-10 10v48.493l-111.551-94.136c-3.725-3.144-9.174-3.144-12.898 0l-237 200c-3.209 2.708-4.385 7.132-2.943 11.076 1.442 3.944 5.193 6.567 9.392 6.567h19v266c0 5.523 4.478 10 10 10h416c5.522 0 10-4.477 10-10v-266h19c4.199 0 7.95-2.623 9.393-6.567 1.441-3.943.265-8.368-2.944-11.076zm-105.449-144.357h44v92.502l-44-37.131zm-138-34.915 209.645 176.915h-419.29zm198 452.915h-396v-256h396z"/><path d="m251.443 180.162c2.517 2.517 6.597 2.517 9.114 0l26.658-26.658c8.62-8.62 8.62-22.595 0-31.215-8.62-8.62-22.595-8.62-31.215 0-8.62-8.62-22.595-8.62-31.215 0-8.62 8.62-8.62 22.595 0 31.215z"/><path d="m71.676 101.701c3.489 3.489 8.13 5.411 13.065 5.411s9.575-1.922 13.064-5.411l35.066-35.066c15.219-15.219 15.219-39.982 0-55.202-7.372-7.373-17.175-11.433-27.6-11.433-7.371 0-14.43 2.029-20.539 5.824-15.045-9.296-35.084-7.427-48.122 5.609-15.219 15.219-15.219 39.982 0 55.202zm-20.924-76.126c3.71-3.71 8.585-5.566 13.459-5.566s9.749 1.855 13.459 5.566c1.876 1.875 4.419 2.929 7.071 2.929s5.196-1.054 7.071-2.929c3.595-3.595 8.375-5.575 13.459-5.575s9.864 1.98 13.459 5.575c7.421 7.421 7.421 19.497 0 26.918l-33.99 33.988-33.988-33.988c-7.421-7.421-7.421-19.497 0-26.918z"/></g></svg>