<svg height="1331pt" viewBox="-105 -41 1331 1331.2512" width="1331pt" xmlns="http://www.w3.org/2000/svg"><path d="m1114.6875 633.335938c-.027344-.246094-.070312-.46875-.117188-.714844-.097656-.671875-.214843-1.335938-.34375-1.992188-.070312-.257812-.144531-.503906-.210937-.761718-.160156-.640626-.347656-1.253907-.566406-1.863282-.078125-.242187-.171875-.488281-.269531-.734375-.234376-.613281-.503907-1.226562-.796876-1.832031-.089843-.207031-.1875-.414062-.292968-.613281-.378906-.714844-.78125-1.410157-1.21875-2.082031-.050782-.070313-.089844-.148438-.136719-.222657-.492187-.734375-1.03125-1.441406-1.597656-2.109375-.15625-.191406-.335938-.367187-.492188-.558594-.429687-.476562-.875-.929687-1.328125-1.371093-.214844-.21875-.460937-.417969-.683594-.628907-.460937-.410156-.929687-.785156-1.417968-1.164062-.144532-.109375-.265625-.234375-.414063-.339844l-87.457031-63.605468v-500.5c0-30.222657-24.601562-54.824219-54.824219-54.824219h-621.617187c-13.46875 0-24.375 10.914062-24.375 24.378906 0 13.457031 10.90625 24.375 24.375 24.375h621.617187c3.292969 0 6.074219 2.78125 6.074219 6.070313v642.328124l-280.320312 203.871094-86.582032-62.96875c-1.121094-.816406-2.300781-1.546875-3.476562-2.300781-26.621094-17.03125-65.238282-16.792969-89.886719 1.117187l-88.191406 64.140626-280.324219-203.859376v-642.328124c0-3.289063 2.785156-6.070313 6.082031-6.070313h26.890625c13.457032 0 24.382813-10.917969 24.382813-24.375 0-13.464844-10.925781-24.378906-24.382813-24.378906h-26.890625c-30.234375 0-54.832031 24.601562-54.832031 54.824219v500.5l-87.460938 63.609374c-.144531.101563-.265624.230469-.410156.335938-.472656.378906-.957031.761719-1.414062 1.164062-.226563.210938-.464844.410157-.683594.628907-.453125.441406-.890625.902343-1.328125 1.378906-.15625.183594-.34375.359375-.492187.550781-.566407.667969-1.105469 1.375-1.597657 2.109375-.042969.074219-.089843.152344-.132812.222657-.445313.671874-.84375 1.367187-1.214844 2.082031-.109375.199219-.195313.417969-.308594.621093-.289062.597657-.554687 1.210938-.800781 1.828126-.097656.242187-.179688.488281-.269531.734374-.207031.609376-.398438 1.234376-.554688 1.859376-.070312.257812-.148437.503906-.207031.773437-.136719.644531-.253906 1.3125-.34375 1.980469-.035156.246094-.09375.472656-.117188.714844-.097656.890624-.164062 1.808593-.164062 2.726562v546.023438c0 34.949218 28.429688 63.378906 63.375 63.378906h994.535156c15.773438 0 30.207032-5.8125 41.316406-15.378906.015626-.023438.039063-.039063.070313-.058594 13.445313-11.625 21.984375-28.804688 21.984375-47.941406v-546.023438c0-.917969-.0625-1.835938-.15625-2.726562zm-97.34375-20.308594 31.6875 23.035156-31.6875 23.046875zm48.75 70.914062v489.273438l-336.371094-244.632813zm-1023.78125 0 336.378906 244.640625-336.378906 244.632813zm494.691406 189.78125c7.714844-5.609375 22.035156-5.882812 31.992188-1.195312.019531.015625.050781.023437.058594.03125.070312.039062.132812.070312.191406.105468 1.363281.660157 2.621094 1.390626 3.773437 2.242188l442.496094 321.808594h-922.621094zm-445.941406-260.695312v46.082031l-31.667969-23.046875zm0 0"/><path d="m242.832031 46.171875h.648438c13.472656 0 24.375-10.917969 24.375-24.375 0-13.464844-10.902344-24.378906-24.375-24.378906h-.648438c-13.472656 0-24.386719 10.914062-24.386719 24.378906 0 13.457031 10.914063 24.375 24.386719 24.375zm0 0"/><path d="m232.382812 265.992188c-34.394531 50.824218-43.820312 78.96875-43.820312 130.933593 0 50.988281 20.5 98.265625 57.699219 133.101563 36.355469 34.050781 84.976562 52.824218 136.945312 52.90625.121094.011718.242188.019531.367188.019531.148437 0 .296875-.019531.449219-.019531 51.679687-.101563 100.304687-19.265625 136.964843-54.011719 37.140625-35.1875 57.59375-82.0625 57.59375-131.996094 0-82.988281-49.484375-124.765625-93.148437-161.617187-39.339844-33.207032-73.332032-61.894532-77.550782-117.835938-.664062-8.882812-6.125-16.691406-14.230468-20.371094-8.101563-3.664062-17.585938-2.636718-24.703125 2.699219-62.90625 47.1875-83.359375 126.542969-80.878907 191.082031-4.996093-5.949218-9.398437-12.953124-13.441406-21.582031-3.722656-7.933593-11.425781-13.261719-20.15625-13.949219-8.75-.683593-17.179687 3.382813-22.089844 10.640626zm196.535157 239.792968c-.613281 12.851563-11.671875 22.222656-32.796875 27.882813-2.761719.21875-5.542969.363281-8.328125.433593-17.496094-7.183593-22.746094-16.972656-25.148438-23.90625-7.621093-21.910156 2.828125-53.011718 12.847657-74.269531 32.632812 18.234375 54.429687 49.15625 53.425781 69.859375zm-117.949219-141.3125c8.789062 3.964844 19.082031 2.375 26.277344-4.042968 7.191406-6.429688 9.910156-16.484376 6.945312-25.664063-10.570312-32.792969-15.089844-110.757813 25.050782-166.390625 17.207031 47.1875 52.632812 77.078125 84.742187 104.183594 40.699219 34.351562 75.84375 64.019531 75.84375 124.367187 0 36.410157-15.039063 70.71875-42.363281 96.597657-3.160156 2.996093-6.441406 5.8125-9.835938 8.492187-1.46875-47.566406-45.753906-99.367187-103.933594-120.335937-.121093-.039063-.253906-.097657-.382812-.136719-.097656-.035157-.1875-.082031-.300781-.113281-.175781-.058594-.371094-.097657-.5625-.164063-.527344-.179687-1.0625-.347656-1.601563-.488281-.289062-.070313-.574218-.117188-.847656-.179688-.496094-.105468-.988281-.207031-1.492188-.289062-.339843-.058594-.6875-.078125-1.042968-.121094-.429688-.050781-.84375-.097656-1.269532-.109375-.410156-.027344-.8125-.027344-1.222656-.027344-.371094 0-.75 0-1.117187.003907-.429688.023437-.859375.058593-1.285157.097656-.351562.035156-.691406.058594-1.046874.117187-.421876.054688-.835938.132813-1.261719.210938-.347657.066406-.707031.136719-1.070313.21875-.378906.097656-.753906.214843-1.136718.3125-.390626.117187-.765626.230469-1.152344.359375-.335938.125-.652344.246094-.984375.378906-.410157.164062-.808594.320312-1.222657.507812-.28125.125-.582031.277344-.855468.421876-.414063.214843-.832032.429687-1.238282.675781-.269531.152343-.539062.316406-.792968.472656-.394532.265625-.785156.519531-1.179688.796875-.265625.183594-.523437.398438-.78125.601562-.34375.273438-.703125.550782-1.03125.832032-.300781.265625-.574218.539062-.855468.800781-.28125.269531-.570313.539063-.839844.816406-.304688.34375-.605469.703125-.890625 1.050781-.226563.242188-.445313.503907-.640625.761719-.316406.398438-.609375.828125-.902344 1.257813-.128906.191406-.273438.371094-.398438.574218-.070312.117188-.1875.296876-.285156.433594 0 .019532-.007812.023438-.007812.023438-5.746094 9.121094-43.347656 71.804687-29.679688 126.640625-12.691406-6.253907-24.410156-14.289063-34.738281-23.964844-27.25-25.539063-42.261719-60.167969-42.261719-97.527344 0-29.015625 2.480469-46.65625 15.820313-71.785156 15.675781 17.625 34.707031 28.886719 57.832031 39.332031zm0 0"/><path d="m671.636719 168.050781h99.722656c13.460937 0 24.375-10.910156 24.375-24.375 0-13.449219-10.914063-24.375-24.375-24.375h-99.722656c-13.457031 0-24.375 10.925781-24.375 24.375 0 13.464844 10.917969 24.375 24.375 24.375zm0 0"/><path d="m671.636719 273.21875h199.445312c13.46875 0 24.375-10.921875 24.375-24.375 0-13.460938-10.90625-24.375-24.375-24.375h-199.445312c-13.457031 0-24.375 10.914062-24.375 24.375 0 13.453125 10.917969 24.375 24.375 24.375zm0 0"/><path d="m671.636719 378.375h199.445312c13.46875 0 24.375-10.902344 24.375-24.375 0-13.449219-10.90625-24.375-24.375-24.375h-199.445312c-13.457031 0-24.375 10.925781-24.375 24.375 0 13.472656 10.917969 24.375 24.375 24.375zm0 0"/><path d="m671.636719 483.542969h99.722656c13.460937 0 24.375-10.90625 24.375-24.375 0-13.460938-10.914063-24.375-24.375-24.375h-99.722656c-13.457031 0-24.375 10.914062-24.375 24.375 0 13.46875 10.917969 24.375 24.375 24.375zm0 0"/><path d="m212.957031 654.179688c0 13.460937 10.910157 24.375 24.375 24.375h633.75c13.46875 0 24.375-10.914063 24.375-24.375 0-13.457032-10.90625-24.378907-24.375-24.378907h-633.75c-13.464843 0-24.375 10.910157-24.375 24.378907zm0 0"/><path d="m646.960938 727.3125c-13.457032 0-24.375 10.914062-24.375 24.386719 0 13.445312 10.917968 24.375 24.375 24.375h100.023437c13.460937 0 24.375-10.929688 24.375-24.375 0-13.472657-10.914063-24.386719-24.375-24.386719zm0 0"/><path d="m576.355469 727.3125c-13.46875 0-24.375 10.914062-24.375 24.386719 0 13.449219 10.90625 24.375 24.375 24.375h.570312c13.460938 0 24.375-10.925781 24.375-24.375 0-13.472657-10.914062-24.386719-24.375-24.386719zm0 0"/></svg>