<svg height="496pt" viewBox="0 0 496 496" width="496pt" xmlns="http://www.w3.org/2000/svg"><path d="m243.3125 56-16.6875-16.6875c-4.714844-4.710938-10.984375-7.3125-17.65625-7.3125h-1.9375c-6.671875 0-12.941406 2.601562-17.65625 7.3125l-16.6875 16.6875h-72l-68.6875 68.6875v19.3125h16v112h320v-112h16v-19.3125l-68.6875-68.6875zm-42.625-5.375c1.695312-1.6875 3.945312-2.625 6.34375-2.625h1.9375c2.398438 0 4.648438.9375 6.34375 2.625l70.0625 70.0625c1.6875 1.695312 2.625 3.945312 2.625 6.34375 0 4.945312-4.023438 8.96875-8.96875 8.96875-2.398438 0-4.648438-.9375-6.34375-2.625l-64.6875-64.6875-64.6875 64.6875c-1.695312 1.6875-3.945312 2.625-6.34375 2.625-4.945312 0-8.96875-4.023438-8.96875-8.96875 0-2.398438.9375-4.648438 2.625-6.34375zm23.3125 189.375h-32v-64h32zm-48-80v80h-16v-100.6875l48-48 48 48v100.6875h-16v-80zm-68.6875-88h49.375l-37.375 37.375c-4.710938 4.714844-7.3125 10.984375-7.3125 17.65625 0 .328125.089844.640625.097656.96875h-60.785156zm-43.3125 72h54.761719c4.558593 4.886719 11.007812 8 18.207031 8 2.429688 0 4.765625-.457031 7.03125-1.121094v89.121094h-80zm288 96h-80v-89.121094c2.265625.664063 4.601562 1.121094 7.03125 1.121094 7.199219 0 13.648438-3.113281 18.207031-8h54.761719zm-48.097656-112c.007812-.328125.097656-.640625.097656-.96875 0-6.671875-2.601562-12.941406-7.3125-17.65625l-37.375-37.375h49.375l56 56zm0 0"/><path d="m80 216h48v-48h-48zm16-32h16v16h-16zm0 0"/><path d="m288 216h48v-48h-48zm16-32h16v16h-16zm0 0"/><path d="m416 384v-384h-416v448c0 26.472656 21.527344 48 48 48h392c30.878906 0 56-25.128906 56-56v-56zm-336 64c0 17.648438-14.351562 32-32 32s-32-14.351562-32-32v-432h384v368h-320zm400-8c0 22.054688-17.945312 40-40 40h-356.257812c7.617187-8.496094 12.257812-19.71875 12.257812-32v-48h384zm0 0"/><path d="m48 272h160v16h-160zm0 0"/><path d="m48 304h160v16h-160zm0 0"/><path d="m192 336h16v16h-16zm0 0"/><path d="m160 336h16v16h-16zm0 0"/><path d="m48 336h96v16h-96zm0 0"/><path d="m296 332.6875-16 16-16-16-21.65625 21.65625 11.3125 11.3125 10.34375-10.34375 16 16 16-16 12.6875 12.6875h43.3125v-16h-36.6875zm0 0"/><path d="m368 352h16v16h-16zm0 0"/></svg>