<svg id="Image" height="512" viewBox="0 0 30 30" width="512" xmlns="http://www.w3.org/2000/svg"><g><path d="m4 9.499v-5.5h5.5c.662 0 .661-1 0-1h-6c-.276 0-.5.224-.5.5v6c0 .662 1 .661 1 0z"/><path d="m9.5 26.001h-5.5v-5.5c0-.662-1-.661-1 0v6c0 .276.224.5.5.5h6c.662 0 .661-1 0-1z"/><path d="m27 3.499c0-.276-.224-.5-.5-.5h-6c-.662 0-.661 1 0 1h5.5v5.5c0 .662 1 .661 1 0z"/><path d="m26 20.501v5.5h-5.5c-.662 0-.661 1 0 1h6c.276 0 .5-.224.5-.5v-6c0-.662-1-.661-1 0z"/><path d="m8 9.499c0 .276.224.5.5.5h1c.276 0 .5-.224.5-.5v-1c0-.276-.224-.5-.5-.5h-1c-.276 0-.5.224-.5.5z"/><path d="m6.5 5.999c-.276 0-.5.224-.5.5v5c0 .276.224.5.5.5h5c.276 0 .5-.224.5-.5v-5c0-.276-.224-.5-.5-.5zm.5 1h4v4h-4z"/><path d="m10 20.499c0-.276-.224-.5-.5-.5h-1c-.276 0-.5.224-.5.5v1c0 .276.224.5.5.5h1c.276 0 .5-.224.5-.5z"/><path d="m12 18.499c0-.276-.224-.5-.5-.5h-5c-.276 0-.5.224-.5.5v5c0 .276.224.5.5.5h5c.276 0 .5-.224.5-.5zm-1 4.5h-4v-4h4z"/><path d="m20 9.499c0 .276.224.5.5.5h1c.276 0 .5-.224.5-.5v-1c0-.276-.224-.5-.5-.5h-1c-.276 0-.5.224-.5.5z"/><path d="m18 11.499c0 .276.224.5.5.5h5c.276 0 .5-.224.5-.5v-5c0-.276-.224-.5-.5-.5h-5c-.276 0-.5.224-.5.5zm1-4.5h4v4h-4z"/><path d="m9.5 16.999c.109 0 4.148 0 4 0 .662 0 .661-1 0-1h-1.5v-1.5c0-.662-1-.661-1 0v1.5h-1.5c-.662 0-.661 1 0 1z"/><path d="m14 7.499v-1c0-.662-1-.661-1 0v1c0 .662 1 .661 1 0z"/><path d="m13.5 9.999h2c.276 0 .5-.224.5-.5v-1.5h.5c.662 0 .661-1 0-1h-1c-.276 0-.5.224-.5.5v1.5h-1.5c-.662 0-.661 1 0 1z"/><path d="m13.5 14.999h2c.662 0 .661-1 0-1h-.5v-2h1.5c.662 0 .661-1 0-1h-2c-.276 0-.5.224-.5.5v2.5h-.5c-.662 0-.661 1 0 1z"/><path d="m17 14.499c0 .662 1 .661 1 0v-1c0-.662-1-.661-1 0z"/><path d="m14 19.999h1v.5c0 .662 1 .661 1 0v-3c0-.662-1-.661-1 0v1.5h-1.5c-.276 0-.5.224-.5.5v1c0 .662 1 .661 1 0z"/><path d="m18 20.499v.5h-.5c-.276 0-.5.224-.5.5v1.5h-2.5c-.662 0-.661 1 0 1h3c.276 0 .5-.224.5-.5v-1.5h.5c.276 0 .5-.224.5-.5v-1c0-.662-1-.661-1 0z"/><path d="m21 21.499v1.5h-.5c-.662 0-.661 1 0 1h3c.662 0 .661-1 0-1h-1.5v-1.5c0-.662-1-.661-1 0z"/><path d="m24 18.499c0-.276-.224-.5-.5-.5h-3c-.662 0-.661 1 0 1h2.5v1.502c0 .662 1 .661 1 0z"/><path d="m24 14.499c0-.662-1-.661-1 0v1.5h-.5c-.662 0-.661 1 0 1h1c.276 0 .5-.224.5-.5z"/><path d="m21 16.499v-2.5h.5c.662 0 .661-1 0-1h-1c-.276 0-.5.224-.5.5v2.5h-1.5c-.276 0-.5.224-.5.5v1.5h-.5c-.662 0-.661 1 0 1h1c.276 0 .5-.224.5-.5v-1.5h1.5c.276 0 .5-.224.5-.5z"/><path d="m6 13.499c0 .149 0 3.145 0 3 0 .662 1 .661 1 0v-1.5h1.5c.662 0 .661-1 0-1h-1.5v-.5c0-.662-1-.661-1 0z"/></g></svg>