<?xml version="1.0" encoding="UTF-8"?>
<svg xmlns="http://www.w3.org/2000/svg" id="Layer_1" data-name="Layer 1" viewBox="0 0 64 64" width="512" height="512"><path d="M8,43.5A2.5,2.5,0,1,0,5.5,41,2.5,2.5,0,0,0,8,43.5Zm0-4A1.5,1.5,0,1,1,6.5,41,1.5,1.5,0,0,1,8,39.5Z"/><path d="M12.5,43A2.5,2.5,0,1,0,15,40.5,2.5,2.5,0,0,0,12.5,43Zm4,0A1.5,1.5,0,1,1,15,41.5,1.5,1.5,0,0,1,16.5,43Z"/><path d="M19.5,41A2.5,2.5,0,1,0,22,38.5,2.5,2.5,0,0,0,19.5,41Zm4,0A1.5,1.5,0,1,1,22,39.5,1.5,1.5,0,0,1,23.5,41Z"/><path d="M.5,59C.5,61.92,8,63.5,15,63.5S29.5,61.92,29.5,59c0-1.68-2.4-2.73-4.58-3.34l.52-4.16H26a.5.5,0,0,0,.5-.5V47A2.5,2.5,0,0,0,24,44.5H23a.5.5,0,0,0-.47.34L22,46.42l-.53-1.58A.5.5,0,0,0,21,44.5H20a2.5,2.5,0,0,0-2.46,2.06A2.35,2.35,0,0,0,17,46.5H16a.5.5,0,0,0-.47.34L15,48.42l-.53-1.58A.5.5,0,0,0,14,46.5H13a2.35,2.35,0,0,0-.54.06A2.5,2.5,0,0,0,10,44.5H9a.5.5,0,0,0-.47.34L8,46.42l-.53-1.58A.5.5,0,0,0,7,44.5H6A2.5,2.5,0,0,0,3.5,47v4a.5.5,0,0,0,.5.5h.56l.52,4.16C2.9,56.27.5,57.32.5,59Zm18-12A1.5,1.5,0,0,1,20,45.5h.64l.89,2.66a.51.51,0,0,0,.94,0l.89-2.66H24A1.5,1.5,0,0,1,25.5,47v3.5H25a.51.51,0,0,0-.5.44l-.94,7.56H20.44L19.5,51V49a2.51,2.51,0,0,0-1-2ZM19,54.67l-.65-.05.14-1.12h.37ZM13,47.5h.64l.89,2.66a.51.51,0,0,0,.94,0l.89-2.66H17A1.5,1.5,0,0,1,18.5,49v3.5H18a.51.51,0,0,0-.5.44l-.94,7.56H13.44l-.94-7.56a.51.51,0,0,0-.5-.44h-.5V49A1.5,1.5,0,0,1,13,47.5Zm-1.3,7.12-.65.05.14-1.17h.37ZM5,50.5H4.5V47A1.5,1.5,0,0,1,6,45.5h.64l.89,2.66a.51.51,0,0,0,.94,0l.89-2.66H10A1.5,1.5,0,0,1,11.5,47h0a2.51,2.51,0,0,0-1,2v2L9.56,58.5H6.44L5.5,50.94A.51.51,0,0,0,5,50.5Zm.21,6.17.29,2.39a.51.51,0,0,0,.5.44h4a.51.51,0,0,0,.5-.44l.42-3.38.9-.07.68,5.45a.51.51,0,0,0,.5.44h4a.51.51,0,0,0,.5-.44l.68-5.45.9.07.42,3.38a.51.51,0,0,0,.5.44h4a.51.51,0,0,0,.5-.44l.29-2.39c2.71.78,3.71,1.7,3.71,2.33,0,1.65-5.77,3.5-13.5,3.5S1.5,60.65,1.5,59C1.5,58.37,2.5,57.45,5.21,56.67Z"/><path d="M39.5,41A2.5,2.5,0,1,0,42,38.5,2.5,2.5,0,0,0,39.5,41Zm4,0A1.5,1.5,0,1,1,42,39.5,1.5,1.5,0,0,1,43.5,41Z"/><path d="M49,45.5A2.5,2.5,0,1,0,46.5,43,2.5,2.5,0,0,0,49,45.5Zm0-4A1.5,1.5,0,1,1,47.5,43,1.5,1.5,0,0,1,49,41.5Z"/><path d="M56,43.5A2.5,2.5,0,1,0,53.5,41,2.5,2.5,0,0,0,56,43.5Zm0-4A1.5,1.5,0,1,1,54.5,41,1.5,1.5,0,0,1,56,39.5Z"/><path d="M58.92,55.66l.52-4.16H60a.5.5,0,0,0,.5-.5V47A2.5,2.5,0,0,0,58,44.5H57a.5.5,0,0,0-.47.34L56,46.42l-.53-1.58A.5.5,0,0,0,55,44.5H54a2.5,2.5,0,0,0-2.46,2.06A2.35,2.35,0,0,0,51,46.5H50a.5.5,0,0,0-.47.34L49,48.42l-.53-1.58A.5.5,0,0,0,48,46.5H47a2.35,2.35,0,0,0-.54.06A2.5,2.5,0,0,0,44,44.5H43a.5.5,0,0,0-.47.34L42,46.42l-.53-1.58A.5.5,0,0,0,41,44.5H40A2.5,2.5,0,0,0,37.5,47v4a.5.5,0,0,0,.5.5h.56l.52,4.16c-2.18.61-4.58,1.66-4.58,3.34,0,2.92,7.47,4.5,14.5,4.5S63.5,61.92,63.5,59C63.5,57.32,61.1,56.27,58.92,55.66ZM52.5,47A1.5,1.5,0,0,1,54,45.5h.64l.89,2.66a.51.51,0,0,0,.94,0l.89-2.66H58A1.5,1.5,0,0,1,59.5,47v3.5H59a.51.51,0,0,0-.5.44l-.94,7.56H54.44L53.5,51V49a2.51,2.51,0,0,0-1-2ZM53,54.67l-.65-.05.14-1.12h.37ZM47,47.5h.64l.89,2.66a.51.51,0,0,0,.94,0l.89-2.66H51A1.5,1.5,0,0,1,52.5,49v3.5H52a.51.51,0,0,0-.5.44l-.94,7.56H47.44l-.94-7.56a.51.51,0,0,0-.5-.44h-.5V49A1.5,1.5,0,0,1,47,47.5Zm-1.3,7.12-.65.05.14-1.17h.37ZM39,50.5h-.5V47A1.5,1.5,0,0,1,40,45.5h.64l.89,2.66a.51.51,0,0,0,.94,0l.89-2.66H44A1.5,1.5,0,0,1,45.5,47h0a2.51,2.51,0,0,0-1,2v2l-.94,7.53H40.44l-.94-7.56A.51.51,0,0,0,39,50.5Zm10,12c-7.73,0-13.5-1.85-13.5-3.5,0-.63,1-1.55,3.71-2.33l.29,2.39a.51.51,0,0,0,.5.44h4a.51.51,0,0,0,.5-.44l.42-3.38.9-.07.68,5.45a.51.51,0,0,0,.5.44h4a.51.51,0,0,0,.5-.44l.68-5.45.9.07.42,3.38a.51.51,0,0,0,.5.44h4a.51.51,0,0,0,.5-.44l.29-2.39c2.71.78,3.71,1.7,3.71,2.33C62.5,60.65,56.73,62.5,49,62.5Z"/><path d="M18.77,8.94l13,7.49a.48.48,0,0,0,.5,0l13-7.49a.53.53,0,0,0,.24-.31.57.57,0,0,0,0-.38,15.49,15.49,0,0,0-26.84,0,.57.57,0,0,0,0,.38A.53.53,0,0,0,18.77,8.94ZM32,1.5A14.53,14.53,0,0,1,44.29,8.33L32,15.42,19.71,8.33A14.53,14.53,0,0,1,32,1.5Z"/><path d="M32,34.5A15.5,15.5,0,0,0,45.42,11.25a.51.51,0,0,0-.69-.18L32,18.42,19.27,11.07a.51.51,0,0,0-.69.18A15.5,15.5,0,0,0,32,34.5Zm.5-15.21,12.29-7.1A14.48,14.48,0,0,1,32.5,33.49Zm-13.29-7.1,12.29,7.1v14.2a14.48,14.48,0,0,1-12.29-21.3Z"/></svg>
