<svg id="Artboard_30" enable-background="new 0 0 64 64" height="512" viewBox="0 0 64 64" width="512" xmlns="http://www.w3.org/2000/svg"><g><path d="m4 34v9c0 1.654 1.346 3 3 3h2.382l1.724 3.447c.169.339.515.553.894.553s.725-.214.895-.553l1.723-3.447h2.382v12.001c0 2.757 2.123 5 4.733 5h20.533c2.61 0 4.733-2.243 4.733-5v-27.001h3.465l1.703 2.555c.187.278.499.445.833.445s.646-.167.832-.445l1.703-2.555h1.465c1.767 0 3-1.354 3-3.293v-7.941c0-1.499-1.374-2.766-3-2.766h-10v-11c0-2.757-2.123-5-4.733-5h-20.534c-2.61 0-4.733 2.243-4.733 5v25h-10c-1.654 0-3 1.346-3 3zm10 10c-.379 0-.725.214-.895.553l-1.105 2.211-1.105-2.211c-.17-.339-.516-.553-.895-.553h-3c-.552 0-1-.448-1-1v-9c0-.552.448-1 1-1h21c.552 0 1 .448 1 1v9c0 .552-.448 1-1 1zm28.267 17.001h-20.534c-1.507 0-2.733-1.346-2.733-3v-5.001h26v5.001c0 1.654-1.227 3-2.733 3zm15.733-41.235v7.941c0 .482-.13 1.293-1 1.293h-2c-.334 0-.646.167-.832.445l-1.168 1.752-1.168-1.752c-.186-.278-.498-.445-.832-.445h-13c-.57 0-1-.43-1-.999v-8.235c0-.379.505-.765 1-.765l19-.001c.495 0 1 .387 1 .766zm-36.267-16.766h20.533c1.507 0 2.734 1.346 2.734 3v1h-26v-1c0-1.654 1.227-3 2.733-3zm-2.733 6h26v8.001h-7c-1.626 0-3 1.266-3 2.765v8.235c0 1.682 1.317 2.999 3 2.999h7v20h-26v-5h9c1.654 0 3-1.346 3-3v-9c0-1.654-1.346-3-3-3h-9z"/><path d="m32 54c-1.654 0-3 1.346-3 3s1.346 3 3 3 3-1.346 3-3-1.346-3-3-3zm0 4c-.552 0-1-.448-1-1s.448-1 1-1 1 .448 1 1-.448 1-1 1z"/><path d="m25 48h2v2h-2z"/><path d="m29 48h2v2h-2z"/><path d="m33 48h2v2h-2z"/><path d="m37 48h2v2h-2z"/></g></svg>