<?xml version="1.0" encoding="iso-8859-1"?>
<!-- Generator: Adobe Illustrator 19.0.0, SVG Export Plug-In . SVG Version: 6.00 Build 0)  -->
<svg version="1.1" id="Capa_1" xmlns="http://www.w3.org/2000/svg" xmlns:xlink="http://www.w3.org/1999/xlink" x="0px" y="0px"
	 viewBox="0 0 415.6 415.6" style="enable-background:new 0 0 415.6 415.6;" xml:space="preserve">
<g>
	<g>
		<path d="M402.6,46.8c3.6,0,6.4-2.8,6.4-6.4V6c-0.4-3.2-3.2-6-6.4-6H13C9.4,0,6.6,2.8,6.6,6.4v402.8c0,3.6,2.8,6.4,6.4,6.4h37.2
			c3.6,0,6.4-2.8,6.4-6.4v-362h82.8V84h-16.8c-18,0-32.8,14.8-32.8,32.8v110.8c0,18,14.8,32.8,32.8,32.8h253.6
			c18,0,32.8-14.8,32.8-32.8V116.4c0-18-14.8-32.8-32.8-32.8h-16.8V46.8H402.6z M375.8,96.4c11.2,0,20.4,9.2,20.4,20v111.2
			c0,11.2-9.2,20-20,20h-254c-11.2,0-20-9.2-20-20V116.4c0-11.2,9.2-20,20-20H375.8z M346.6,84H151.4V47.2h195.2V84z M353.4,29.2
			c-3.2,0-5.6,2.4-6,5.2h-196c-0.4-2.8-2.8-5.2-6-5.2c-3.2,0-5.6,2.4-6,5.2H50.2c-3.6,0-6.4,2.8-6.4,6.4v362H19.4V12.4h376.8v22
			h-36.8C359,31.6,356.6,29.2,353.4,29.2z"/>
	</g>
</g>
<g>
	<g>
		<path d="M189,172c-0.8-2-2.8-4-5.2-5.2c-2.4-1.2-6.4-2.8-11.6-4c-5.2-1.2-8.8-2.4-10-3.6c-1.2-0.8-1.6-2-1.6-3.2
			c0-1.2,0.4-2.4,1.6-3.2c1.6-1.2,4.4-2,7.6-2s5.2,0.8,6.8,2c1.6,1.2,2.4,3.2,2.8,6l10.8-0.4c0-4.8-2-8.8-5.2-12
			c-3.6-2.8-8.4-4.4-15.2-4.4c-4,0-7.6,0.8-10.8,2c-2.8,1.2-5.2,3.2-6.8,5.6c-1.6,2.4-2.4,4.8-2.4,7.6c0,4.4,1.6,8,4.8,10.8
			c2.4,2,6.4,4,12.4,5.2c4.4,1.2,7.6,2,8.8,2.4c2,0.8,3.2,1.6,4,2.4c0.8,0.8,1.2,2,1.2,3.2c0,2-0.8,3.6-2.8,5.2
			c-1.6,1.6-4.4,2.4-8,2.4c-3.2,0-6-0.8-8-2.4s-3.2-4.4-4-8l-10.4,0.4c0.8,6,2.8,10.8,6.4,13.6c3.6,3.2,8.8,4.8,15.6,4.8
			c4.8,0,8.4-0.8,11.6-2c3.2-1.2,5.6-3.2,7.2-6c1.6-2.8,2.4-5.6,2.4-8.8C191,176.8,190.2,174,189,172z"/>
	</g>
</g>
<g>
	<g>
		<path d="M243.8,148.8c-4.8-4.8-11.2-7.2-19.2-7.2c-4.4,0-8.4,0.8-11.6,2c-2.4,1.2-4.8,2.8-6.8,4.8c-2,2-3.6,4.8-5.2,7.2
			c-1.6,3.6-2.4,8.4-2.4,14c0,8.4,2.4,15.2,7.2,20s11.2,7.2,19.2,7.2s14.4-2.4,18.8-7.2c4.8-4.8,7.2-11.6,7.2-20.4
			S248.6,153.6,243.8,148.8z M235.4,183.2c-2.8,3.2-6.4,4.8-10.8,4.8c-4.4,0-8-1.6-10.8-4.8c-2.8-3.2-4.4-7.6-4.4-14
			c0-6,1.2-10.8,4-14c2.8-3.2,6.4-4.8,10.8-4.8c4.4,0,8,1.6,10.8,4.4c2.8,3.2,4,7.6,4,14C239.8,175.6,238.2,180.4,235.4,183.2z"/>
	</g>
</g>
<g>
	<g>
		<polygon points="270.6,187.2 270.6,142.8 259.8,142.8 259.8,196.4 297.8,196.4 297.8,187.2 		"/>
	</g>
</g>
<g>
	<g>
		<path d="M348.6,156.8c-0.8-2.8-2.8-6-4.8-8.4c-2.4-2.4-4.8-4-8-4.8c-2.4-0.8-5.6-1.2-10.4-1.2h-20v54h20.4c4,0,7.2-0.4,9.6-1.2
			c3.2-1.2,5.6-2.4,7.6-4.4c2.4-2.4,4.4-5.6,5.6-9.6c1.2-3.2,1.6-7.2,1.6-11.6C350.2,164.4,349.8,160.4,348.6,156.8z M338.2,179.2
			c-0.8,2.4-1.6,4-2.8,5.2c-1.2,1.2-2.8,2-4.4,2.4c-1.2,0.4-3.6,0.4-6.4,0.4h-8v-35.6h4.8c4.4,0,7.6,0,8.8,0.4
			c2,0.4,3.6,1.2,5.2,2.4c1.2,1.2,2.4,2.8,3.2,5.2c0.8,2.4,1.2,5.6,1.2,9.6S339,176.8,338.2,179.2z"/>
	</g>
</g>
<g>
</g>
<g>
</g>
<g>
</g>
<g>
</g>
<g>
</g>
<g>
</g>
<g>
</g>
<g>
</g>
<g>
</g>
<g>
</g>
<g>
</g>
<g>
</g>
<g>
</g>
<g>
</g>
<g>
</g>
</svg>
