<?xml version="1.0" encoding="iso-8859-1"?>
<!-- Generator: Adobe Illustrator 19.0.0, SVG Export Plug-In . SVG Version: 6.00 Build 0)  -->
<svg version="1.1" id="Layer_1" xmlns="http://www.w3.org/2000/svg" xmlns:xlink="http://www.w3.org/1999/xlink" x="0px" y="0px"
	 viewBox="0 0 511.999 511.999" style="enable-background:new 0 0 511.999 511.999;" xml:space="preserve">
<g>
	<g>
		<path d="M486.879,196.683c-9.099,0-17.085,4.865-21.492,12.13l-107.451-23.877c-1.334-12.604-12.025-22.457-24.977-22.457
			c-13.851,0-25.119,11.268-25.119,25.119c0,2.261,0.306,4.451,0.868,6.536l-114.312,76.22c-4.25-3.294-9.576-5.262-15.357-5.262
			c-13.825,0-25.075,11.227-25.117,25.042L45.154,326.388c-4.59-6.064-11.863-9.99-20.035-9.99C11.268,316.399,0,327.667,0,341.518
			c0,13.851,11.268,25.119,25.119,25.119c13.825,0,25.075-11.227,25.117-25.042l108.768-36.253
			c4.59,6.063,11.861,9.989,20.035,9.989c13.851,0,25.119-11.268,25.119-25.119c0-2.254-0.304-4.439-0.864-6.52l114.321-76.226
			c4.248,3.288,9.569,5.251,15.343,5.251c9.101,0,17.086-4.866,21.493-12.131l107.45,23.877
			c1.333,12.604,12.025,22.458,24.977,22.458c13.851,0,25.119-11.268,25.119-25.119S500.73,196.683,486.879,196.683z
			 M25.119,350.603c-5.01,0-9.086-4.076-9.086-9.086s4.076-9.086,9.086-9.086s9.086,4.076,9.086,9.086
			S30.129,350.603,25.119,350.603z M179.039,299.296c-5.01,0-9.086-4.076-9.086-9.086s4.076-9.086,9.086-9.086
			c5.01,0,9.086,4.076,9.086,9.086S184.049,299.296,179.039,299.296z M332.959,196.683c-5.01,0-9.086-4.076-9.086-9.086
			s4.076-9.086,9.086-9.086s9.086,4.076,9.086,9.086S337.969,196.683,332.959,196.683z M486.879,230.888
			c-5.01,0-9.086-4.076-9.086-9.086s4.076-9.086,9.086-9.086s9.086,4.076,9.086,9.086S491.889,230.888,486.879,230.888z"/>
	</g>
</g>
<g>
	<g>
		<path d="M365.869,219.347c-3.741-2.373-8.693-1.257-11.062,2.483l-92.845,146.597c-1.912-0.468-3.909-0.721-5.963-0.721
			c-2.979,0-5.836,0.524-8.49,1.479l-36.241-45.778c-2.748-3.472-7.791-4.056-11.262-1.31c-3.472,2.748-4.058,7.79-1.309,11.262
			l36.249,45.788c-2.567,3.939-4.066,8.634-4.066,13.676c0,13.851,11.268,25.119,25.119,25.119
			c13.851,0,25.119-11.268,25.119-25.119c0-5.987-2.108-11.488-5.617-15.809l92.851-146.608
			C370.721,226.668,369.609,221.714,365.869,219.347z M255.999,401.91c-5.01,0-9.086-4.076-9.086-9.086s4.076-9.086,9.086-9.086
			s9.086,4.076,9.086,9.086S261.009,401.91,255.999,401.91z"/>
	</g>
</g>
<g>
	<g>
		<path d="M511.423,99.1c-1.645-4.112-6.311-6.113-10.422-4.465l-63.426,25.378c-4.611-5.404-11.464-8.841-19.107-8.841
			c-13.851,0-25.119,11.268-25.119,25.119c0,5.987,2.109,11.49,5.618,15.81l-9.948,15.708c-2.368,3.74-1.256,8.693,2.484,11.061
			c1.331,0.843,2.814,1.245,4.281,1.245c2.656,0,5.255-1.319,6.78-3.728l9.942-15.699c1.912,0.468,3.908,0.721,5.963,0.721
			c13.851,0,25.119-11.268,25.119-25.119c0-0.469-0.015-0.935-0.041-1.399l63.411-25.371
			C511.069,107.877,513.068,103.211,511.423,99.1z M418.47,145.376c-5.01,0-9.086-4.076-9.086-9.086
			c0-5.009,4.076-9.086,9.086-9.086s9.086,4.076,9.086,9.086C427.556,141.301,423.48,145.376,418.47,145.376z"/>
	</g>
</g>
<g>
	<g>
		<path d="M153.917,250.964l-39.337-49.688c2.568-3.939,4.066-8.636,4.066-13.677c0-13.851-11.268-25.119-25.119-25.119
			c-13.851,0-25.118,11.267-25.118,25.118c0,3.024,0.538,5.924,1.521,8.612L3.011,249.736c-3.458,2.765-4.019,7.81-1.253,11.267
			c1.583,1.981,3.913,3.01,6.265,3.01c1.756,0,3.524-0.574,5.002-1.757l66.932-53.537c3.916,2.526,8.574,3.998,13.571,3.998
			c2.978,0,5.836-0.524,8.489-1.479l39.33,49.679c1.582,1.999,3.925,3.041,6.29,3.041c1.742,0,3.498-0.565,4.97-1.732
			C156.079,259.478,156.665,254.436,153.917,250.964z M93.528,196.683c-5.01,0-9.086-4.076-9.086-9.086s4.076-9.086,9.086-9.086
			s9.086,4.076,9.086,9.086S98.538,196.683,93.528,196.683z"/>
	</g>
</g>
<g>
</g>
<g>
</g>
<g>
</g>
<g>
</g>
<g>
</g>
<g>
</g>
<g>
</g>
<g>
</g>
<g>
</g>
<g>
</g>
<g>
</g>
<g>
</g>
<g>
</g>
<g>
</g>
<g>
</g>
</svg>
