<svg id="Layer_1" enable-background="new 0 0 48 48" height="512" viewBox="0 0 48 48" width="512" xmlns="http://www.w3.org/2000/svg"><g><path d="m4.63 22.78 2.37-1.9v21.12c0 .55.45 1 1 1h32c.55 0 1-.45 1-1v-21.12l2.38 1.9c.18.15.4.22.62.22.29 0 .58-.13.78-.38.34-.43.27-1.06-.16-1.41l-20-16c-.37-.29-.88-.29-1.25 0l-20 16c-.43.34-.5.97-.16 1.41.35.44.98.51 1.42.16zm4.37-3.5 15-12 15 12v21.72h-30z"/><path d="m19 27h2v7c0 .55.45 1 1 1h4c.55 0 1-.45 1-1v-7h2c.35 0 .68-.19.86-.49.18-.31.18-.68.01-.99l-5-9c-.35-.63-1.4-.63-1.75 0l-5 9c-.17.31-.17.69.01.99.19.3.52.49.87.49zm5-7.94 3.3 5.94h-1.3c-.55 0-1 .45-1 1v7h-2v-7c0-.55-.45-1-1-1h-1.3z"/><path d="m32 33c-.55 0-1 .45-1 1v3h-14v-3c0-.55-.45-1-1-1s-1 .45-1 1v4c0 .55.45 1 1 1h16c.55 0 1-.45 1-1v-4c0-.55-.45-1-1-1z"/></g></svg>