<svg id="Group_1217" data-name="Group 1217" xmlns="http://www.w3.org/2000/svg" xmlns:xlink="http://www.w3.org/1999/xlink" width="35.552" height="31.812" viewBox="0 0 35.552 31.812">
  <defs>
    <clipPath id="clip-path">
      <rect id="Rectangle_449" data-name="Rectangle 449" width="35.552" height="31.812" fill="none"/>
    </clipPath>
  </defs>
  <g id="Group_1216" data-name="Group 1216" clip-path="url(#clip-path)">
    <path id="Path_1025" data-name="Path 1025" d="M0,27.573V4.242c.024-.088.055-.175.07-.265A4.786,4.786,0,0,1,4.712.007q11.333-.013,22.665,0a4.768,4.768,0,0,1,4.631,4.135.4.4,0,0,0,.317.379,4.715,4.715,0,0,1,2.946,2.93c.122.332.189.684.281,1.027v19.1a1.349,1.349,0,0,0-.062.194,4.78,4.78,0,0,1-4.716,4.042q-13,.007-25.993,0a4.778,4.778,0,0,1-4.539-3.3C.142,28.2.08,27.885,0,27.573M33.315,12.968c0-1.3,0-2.537,0-3.775a2.567,2.567,0,0,0-2.7-2.7q-12.827,0-25.655,0A2.57,2.57,0,0,0,2.238,9.215q0,8.818,0,17.635a2.577,2.577,0,0,0,2.721,2.726q12.81,0,25.62,0a2.579,2.579,0,0,0,2.735-2.712c.005-1.088,0-2.176,0-3.263,0-.11-.01-.221-.016-.357h-.488c-2.395-.013-4.794.059-7.183-.06a5.122,5.122,0,0,1,.637-10.216q3.3,0,6.6,0h.455M29.748,4.244c-.037-.135-.057-.234-.091-.329a2.557,2.557,0,0,0-2.439-1.676c-1.168-.01-2.336,0-3.5,0q-9.334,0-18.668,0a2.92,2.92,0,0,0-1.651.431,2.41,2.41,0,0,0-1.1,2.3A6.345,6.345,0,0,1,6.016,4.24q11.624.013,23.249,0Zm3.54,16.745V15.23a.959.959,0,0,0-.128-.02c-2.383,0-4.765-.017-7.148.009a2.885,2.885,0,0,0,.18,5.767c2.255.01,4.511,0,6.766,0h.33" transform="translate(0 0)" fill="#FFA535"/>
    <path id="Path_1026" data-name="Path 1026" d="M275.636,183.823a1.167,1.167,0,1,1-1.163,1.165,1.166,1.166,0,0,1,1.163-1.165" transform="translate(-249.061 -166.804)" fill="#FFA535"/>
  </g>
</svg>
