<?xml version="1.0" encoding="UTF-8"?>
<svg xmlns="http://www.w3.org/2000/svg" id="Layer_1" data-name="Layer 1" viewBox="0 0 128 128" width="512" height="512"><path d="M52.14,120a43,43,0,0,1-24.73-12.41C12.1,92.27,9.12,72,9.09,71.75a2,2,0,0,0-4,.54c.12.89,3.16,21.83,19.46,38.12A46.58,46.58,0,0,0,51.86,124H52a2,2,0,0,0,.14-4Z"/><path d="M117,107a90.63,90.63,0,0,1-19.26-2.13C104.92,96.34,110,81.65,110,60,110,28.21,97.66,6,80,6H51C35.84,6,23,30.83,23,60.22a94.63,94.63,0,0,0,1.09,14.27,44.15,44.15,0,0,1-4.28-7.28,2,2,0,1,0-3.68,1.58,48.28,48.28,0,0,0,9.43,13.62l.16.14C30.34,100.76,40.18,114,51,114H80a21.89,21.89,0,0,0,14.49-5.79A92.36,92.36,0,0,0,117,111a2,2,0,0,0,0-4ZM27,60.22C27,30.63,39.66,10,51,10c12.92,0,26,17.17,26,50,0,34.54-13.06,50-26,50C39.68,110,27,88.71,27,60.22ZM63.22,110C73.18,103.06,81,86.88,81,60c0-23.81-6.92-42.25-17.82-50H80c12.92,0,26,17.17,26,50,0,34.54-13.06,50-26,50Z"/><path d="M83.77,37.15a2,2,0,0,0,2.62-1.06l1.39-3.26a82,82,0,0,1,4.07,20.28,2,2,0,1,0,4-.3A86.26,86.26,0,0,0,91.59,31.6l2.88,1.23A2,2,0,0,0,96,29.15L88.52,26A2,2,0,0,0,85.9,27l-3.19,7.51A2,2,0,0,0,83.77,37.15Z"/><path d="M97.31,88.21a2,2,0,0,0-2.65-1l-3,1.39a86.93,86.93,0,0,0,4.27-22.39,2,2,0,0,0-4-.24,82.4,82.4,0,0,1-4,21.29l-1.42-3.05a2,2,0,0,0-3.63,1.69l3.44,7.4a2,2,0,0,0,2.66,1l7.4-3.44A2,2,0,0,0,97.31,88.21Z"/><path d="M64,60c0-14.78-5.52-25.1-13.41-25.1C43.65,34.9,38,46.21,38,60.1c0,13.55,5.76,25,12.59,25C57.26,85.1,64,77.34,64,60ZM50.59,81.1c-3.42,0-8.59-8.38-8.59-21,0-11.94,4.62-21.2,8.59-21.2C55.15,38.9,60,46.3,60,60,60,74.5,55.12,81.1,50.59,81.1Z"/></svg>
