<svg id="Layer_1" enable-background="new 0 0 512 512" height="512" viewBox="0 0 512 512" width="512" xmlns="http://www.w3.org/2000/svg"><g><g><path d="m98.441 205.34h30.869c5.522 0 10-4.477 10-10s-4.478-10-10-10h-30.869c-5.522 0-10 4.477-10 10s4.478 10 10 10z"/><path d="m317.95 195.34c0-5.523-4.478-10-10-10h-120.983c-5.522 0-10 4.477-10 10s4.478 10 10 10h120.983c5.523 0 10-4.477 10-10z"/><path d="m287.591 243.813c0-5.523-4.478-10-10-10h-38.75c-5.522 0-10 4.477-10 10s4.478 10 10 10h38.75c5.522 0 10-4.477 10-10z"/><path d="m98.441 253.813h92.353c5.522 0 10-4.477 10-10s-4.478-10-10-10h-92.353c-5.522 0-10 4.477-10 10s4.478 10 10 10z"/><path d="m269.336 292.287c0-5.523-4.478-10-10-10h-160.895c-5.522 0-10 4.477-10 10s4.478 10 10 10h160.895c5.522 0 10-4.477 10-10z"/><path d="m178.804 330.761c-5.522 0-10 4.477-10 10s4.478 10 10 10h68.145c5.522 0 10-4.477 10-10s-4.478-10-10-10z"/><path d="m98.441 330.761c-5.522 0-10 4.477-10 10s4.478 10 10 10h41.924c5.522 0 10-4.477 10-10s-4.478-10-10-10z"/><path d="m499.015 72.159-21.338-14.084c-13.288-8.787-31.276-5.124-40.11 8.189l-52.791 79.964c-18.426-9.036-38.751-13.784-59.336-13.784h-50.031c-5.522 0-10 4.477-10 10s4.478 10 10 10h50.031c16.67 0 33.14 3.66 48.21 10.637l-63.642 96.399c-.585.886-1.344 2.743-1.504 3.782l-13.748 78.409c-.688 3.922 1.017 7.878 4.34 10.072 1.671 1.103 3.59 1.655 5.51 1.655 1.898 0 3.798-.54 5.457-1.62l66.728-43.456c1.129-.737 2.146-1.746 2.888-2.87l53.021-80.302c5.478 13.602 8.343 28.174 8.343 42.901 0 63.746-51.859 115.607-115.604 115.607h-89.319c-1.958 0-3.873.575-5.508 1.653l-72.313 47.719-13.146-42.337c-1.299-4.184-5.169-7.035-9.55-7.035-63.744-.001-115.603-51.862-115.603-115.608s51.859-115.606 115.604-115.606h50.003c5.522 0 10-4.477 10-10s-4.478-10-10-10h-50.003c-74.773 0-135.604 60.833-135.604 135.606 0 72.282 56.844 131.537 128.175 135.406l14.972 48.217c.932 3.003 3.224 5.393 6.185 6.451 1.094.391 2.231.583 3.364.583 1.935 0 3.854-.561 5.509-1.653l80.918-53.397h86.317c74.772 0 135.604-60.833 135.604-135.607 0-21.764-5.317-43.238-15.396-62.509l61.598-93.29c8.76-13.312 5.07-31.295-8.231-40.092zm-180.586 250.302 7.142-40.731 27.521 18.157zm50.067-36.372-36.286-23.939 99.155-150.192 36.29 23.954zm122.051-184.845-11.871 17.979-36.291-23.955 11.861-17.965c2.732-4.118 8.297-5.259 12.407-2.541l21.338 14.083c4.115 2.723 5.259 8.291 2.556 12.399z"/><path d="m230.508 152.444h.057c5.522 0 9.972-4.477 9.972-10s-4.506-10-10.028-10-10 4.477-10 10 4.476 10 9.999 10z"/></g></g></svg>