<svg id="_21" data-name="21" xmlns="http://www.w3.org/2000/svg" width="29.998" height="30" viewBox="0 0 29.998 30">
  <path id="Path_1001" data-name="Path 1001" d="M15,30A15,15,0,1,1,30,15a16.312,16.312,0,0,1-.356,3.3.96.96,0,1,1-1.875-.412A13.5,13.5,0,0,0,28.124,15a13.124,13.124,0,1,0-7.05,11.643.937.937,0,1,1,.862,1.65A14.831,14.831,0,0,1,15,30Z"/>
  <path id="Path_1002" data-name="Path 1002" d="M13.937,18.375A.937.937,0,0,1,13,17.437v-7.5a.937.937,0,1,1,1.875,0v7.5A.937.937,0,0,1,13.937,18.375Z" transform="translate(11.374 7.874)"/>
  <circle id="Ellipse_7" data-name="Ellipse 7" cx="1" cy="1" r="1" transform="translate(24 28)"/>
  <path id="Path_1003" data-name="Path 1003" d="M5.152,17.587a.956.956,0,0,1,.262-1.312l5.212-3.469V3.937a.937.937,0,1,1,1.875,0v9.375a.956.956,0,0,1-.412.787l-5.625,3.75a1.031,1.031,0,0,1-1.312-.262Z" transform="translate(4.372 2.625)"/>
</svg>
