<?xml version="1.0" standalone="no"?>
<!DOCTYPE svg PUBLIC "-//W3C//DTD SVG 20010904//EN"
 "http://www.w3.org/TR/2001/REC-SVG-20010904/DTD/svg10.dtd">
<svg version="1.0" xmlns="http://www.w3.org/2000/svg"
 width="410.000000pt" height="410.000000pt" viewBox="0 0 410.000000 410.000000"
 preserveAspectRatio="xMidYMid meet">
<metadata>
Created by potrace 1.14, written by Peter Selinger 2001-2017
</metadata>
<g transform="translate(0.000000,410.000000) scale(0.100000,-0.100000)"
fill="#000000" stroke="none">
<path d="M1870 4094 c-379 -47 -654 -143 -940 -329 -425 -277 -741 -715 -864
-1200 -50 -197 -60 -285 -60 -515 0 -230 10 -318 60 -515 143 -564 544 -1058
1071 -1319 190 -95 372 -153 598 -193 140 -24 490 -24 630 0 456 80 831 273
1142 589 308 311 491 674 570 1123 24 140 24 490 0 630 -53 304 -155 567 -310
803 -84 128 -148 207 -260 320 -310 315 -692 512 -1137 587 -91 15 -426 28
-500 19z"/>
</g>
</svg>
